<svg width="19" height="23" viewBox="0 0 19 23" fill="none" xmlns="http://www.w3.org/2000/svg">
<path d="M9.42857 9.57143C5.73326 9.57143 2.02567 8.90848 0 7.48438V9.57143C0 11.3025 4.22321 12.7143 9.42857 12.7143C14.6339 12.7143 18.8571 11.3025 18.8571 9.57143V7.48438C16.8315 8.90848 13.1239 9.57143 9.42857 9.57143ZM9.42857 19C5.73326 19 2.02567 18.3371 0 16.9129V19C0 20.731 4.22321 22.1429 9.42857 22.1429C14.6339 22.1429 18.8571 20.731 18.8571 19V16.9129C16.8315 18.3371 13.1239 19 9.42857 19ZM9.42857 14.2857C5.73326 14.2857 2.02567 13.6228 0 12.1987V14.2857C0 16.0167 4.22321 17.4286 9.42857 17.4286C14.6339 17.4286 18.8571 16.0167 18.8571 14.2857V12.1987C16.8315 13.6228 13.1239 14.2857 9.42857 14.2857ZM9.42857 0.142856C4.22321 0.142856 0 1.55469 0 3.28571V4.85714C0 6.58817 4.22321 8 9.42857 8C14.6339 8 18.8571 6.58817 18.8571 4.85714V3.28571C18.8571 1.55469 14.6339 0.142856 9.42857 0.142856Z" fill="white"/>
</svg>
