<svg width="14" height="18" viewBox="0 0 14 18" fill="none" xmlns="http://www.w3.org/2000/svg">
<path d="M8.82143 14.0938C8.82143 13.7868 8.57031 13.5357 8.26339 13.5357H4.91518C4.60826 13.5357 4.35714 13.7868 4.35714 14.0938V17.442C4.35714 17.7489 4.60826 18 4.91518 18H8.26339C8.57031 18 8.82143 17.7489 8.82143 17.442V14.0938ZM13.2299 5.72321C13.2299 2.52846 9.8817 0.142857 6.89621 0.142857C4.05022 0.142857 1.92969 1.35658 0.422991 3.85379C0.269531 4.10491 0.325335 4.41183 0.5625 4.59319L2.85045 6.33705C2.96205 6.40681 3.07366 6.44866 3.19922 6.44866C3.35268 6.44866 3.52009 6.36496 3.6317 6.22545C4.4548 5.19308 4.78962 4.85826 5.12444 4.62109C5.43136 4.41183 6.00335 4.21652 6.63114 4.21652C7.76116 4.21652 8.77958 4.91406 8.77958 5.69531C8.77958 6.58817 8.33315 7.04855 7.25893 7.53683C6.03125 8.09487 4.35714 9.54576 4.35714 11.2338V11.8616C4.35714 12.1685 4.55246 12.6429 4.85938 12.6429H8.20759C8.52846 12.6429 8.76563 12.2801 8.76563 11.9732C8.76563 11.5686 9.28181 10.606 10.1049 10.1317C11.4302 9.3923 13.2299 8.37388 13.2299 5.72321Z" fill="white"/>
</svg>
