<svg width="35" height="35" viewBox="0 0 35 35" fill="none" xmlns="http://www.w3.org/2000/svg">
<mask id="mask0" mask-type="alpha" maskUnits="userSpaceOnUse" x="0" y="0" width="35" height="35">
<circle cx="17.5" cy="17.5" r="17.5" fill="#C4C4C4"/>
</mask>
<g mask="url(#mask0)">
<circle cx="17.5" cy="17.5" r="17.5" fill="#231225"/>
<path opacity="0.44" d="M18 22C22.1031 22 25.4286 18.8664 25.4286 15C25.4286 11.1336 22.1031 8 18 8C13.8969 8 10.5714 11.1336 10.5714 15C10.5714 18.8664 13.8969 22 18 22ZM23.2 23.75H22.2308C20.9424 24.3078 19.5089 24.625 18 24.625C16.4911 24.625 15.0634 24.3078 13.7692 23.75H12.8C8.49375 23.75 5 27.0422 5 31.1V33.375C5 34.8242 6.24777 36 7.78571 36H28.2143C29.7522 36 31 34.8242 31 33.375V31.1C31 27.0422 27.5063 23.75 23.2 23.75Z" fill="url(#paint0_linear)"/>
</g>
<defs>
<linearGradient id="paint0_linear" x1="26.2407" y1="7.99997" x2="-47.295" y2="15.2109" gradientUnits="userSpaceOnUse">
<stop stop-color="#803C8A"/>
<stop offset="1" stop-color="#FFCDCE"/>
</linearGradient>
</defs>
</svg>
