<svg width="14" height="15" viewBox="0 0 14 15" fill="none" xmlns="http://www.w3.org/2000/svg">
<path d="M14 1.40625V9.84375C14 10.6201 13.4121 11.25 12.6875 11.25H11.375V5.15625C11.375 3.86426 10.3934 2.8125 9.1875 2.8125H3.5V1.40625C3.5 0.629883 4.08789 0 4.8125 0H12.6875C13.4121 0 14 0.629883 14 1.40625ZM10.5 5.15625V13.5938C10.5 14.3701 9.91211 15 9.1875 15H1.3125C0.587891 15 0 14.3701 0 13.5938V5.15625C0 4.37988 0.587891 3.75 1.3125 3.75H9.1875C9.91211 3.75 10.5 4.37988 10.5 5.15625ZM8.64062 5.97656C8.64062 5.7832 8.49297 5.625 8.3125 5.625H2.07812C1.89766 5.625 1.75 5.7832 1.75 5.97656V7.5H8.64062V5.97656Z" fill="url(#paint0_linear)"/>
<defs>
<linearGradient id="paint0_linear" x1="11.4373" y1="-1.56806e-05" x2="-28.155" y2="3.90232" gradientUnits="userSpaceOnUse">
<stop stop-color="#803C8A"/>
<stop offset="1" stop-color="#FFCDCE"/>
</linearGradient>
</defs>
</svg>
