<svg width="16" height="16" viewBox="0 0 16 16" fill="none" xmlns="http://www.w3.org/2000/svg">
<path d="M10.6676 3.80938C10.6676 3.6125 10.5981 3.42188 10.4731 3.28125L7.75345 0.21875C7.62844 0.078125 7.45898 0 7.28119 0H7.11173V4H10.6676V3.80938ZM15.8625 9.625L13.2039 6.6125C12.9233 6.29688 12.4427 6.51875 12.4427 6.96562V9H10.6648V11H12.4427V13.0375C12.4427 13.4844 12.9233 13.7063 13.2039 13.3906L15.8625 10.375C16.0458 10.1687 16.0458 9.83125 15.8625 9.625ZM5.3338 10.5V9.5C5.3338 9.225 5.53381 9 5.77828 9H10.6676V5H6.88949C6.52279 5 6.22276 4.6625 6.22276 4.25V0H0.666725C0.297248 0 0 0.334375 0 0.75V15.25C0 15.6656 0.297248 16 0.666725 16H10.0009C10.3703 16 10.6676 15.6656 10.6676 15.25V11H5.77828C5.53381 11 5.3338 10.775 5.3338 10.5Z" fill="#803C8A"/>
</svg>
