<svg width="23" height="14" viewBox="0 0 23 14" fill="none" xmlns="http://www.w3.org/2000/svg">
<path d="M22.8611 6.46771C20.6956 2.61005 16.4087 0 11.5 0C6.59133 0 2.30318 2.61188 0.138937 6.46807C0.0475922 6.63305 0 6.81532 0 7.00018C0 7.18504 0.0475922 7.36731 0.138937 7.53229C2.30437 11.3899 6.59133 14 11.5 14C16.4087 14 20.6968 11.3881 22.8611 7.53193C22.9524 7.36695 23 7.18468 23 6.99982C23 6.81496 22.9524 6.63269 22.8611 6.46771ZM11.5 12.25C10.3628 12.25 9.25105 11.9421 8.30546 11.3652C7.35988 10.7883 6.62289 9.9684 6.18768 9.00909C5.75248 8.04978 5.63861 6.99418 5.86047 5.97578C6.08234 4.95738 6.62997 4.02191 7.43413 3.28769C8.23828 2.55346 9.26283 2.05345 10.3782 1.85088C11.4936 1.6483 12.6498 1.75227 13.7004 2.14963C14.7511 2.54699 15.6491 3.2199 16.281 4.08326C16.9128 4.94661 17.25 5.96165 17.25 7C17.2504 7.68953 17.1019 8.37237 16.8131 9.00949C16.5242 9.6466 16.1007 10.2255 15.5667 10.7131C15.0327 11.2006 14.3987 11.5873 13.7009 11.8511C13.0031 12.1148 12.2552 12.2503 11.5 12.25ZM11.5 3.5C11.1578 3.50437 10.8179 3.55084 10.4894 3.63818C10.7602 3.9742 10.8901 4.38772 10.8557 4.80373C10.8212 5.21974 10.6246 5.6107 10.3015 5.9057C9.97838 6.20071 9.55019 6.38022 9.09456 6.41169C8.63892 6.44316 8.18603 6.32451 7.818 6.07724C7.60843 6.78219 7.64626 7.5294 7.92616 8.2137C8.20607 8.89799 8.71395 9.48492 9.37833 9.89186C10.0427 10.2988 10.8301 10.5053 11.6298 10.4822C12.4294 10.4591 13.201 10.2077 13.8359 9.76329C14.4708 9.31887 14.9371 8.70385 15.1692 8.00479C15.4012 7.30573 15.3873 6.55783 15.1294 5.86635C14.8715 5.17488 14.3826 4.57466 13.7316 4.15017C13.0805 3.72567 12.3 3.49828 11.5 3.5Z" fill="white"/>
</svg>
