<svg width="12" height="13" viewBox="0 0 12 13" fill="none" xmlns="http://www.w3.org/2000/svg">
<path d="M0.835714 11.7812C0.835714 12.1045 0.967787 12.4145 1.20288 12.643C1.43797 12.8716 1.75682 13 2.08929 13H9.61071C9.94318 13 10.262 12.8716 10.4971 12.643C10.7322 12.4145 10.8643 12.1045 10.8643 11.7812V3.25H0.835714V11.7812ZM7.93929 5.28125C7.93929 5.17351 7.98331 5.07018 8.06167 4.99399C8.14004 4.9178 8.24632 4.875 8.35714 4.875C8.46797 4.875 8.57425 4.9178 8.65261 4.99399C8.73098 5.07018 8.775 5.17351 8.775 5.28125V10.9688C8.775 11.0765 8.73098 11.1798 8.65261 11.256C8.57425 11.3322 8.46797 11.375 8.35714 11.375C8.24632 11.375 8.14004 11.3322 8.06167 11.256C7.98331 11.1798 7.93929 11.0765 7.93929 10.9688V5.28125ZM5.43214 5.28125C5.43214 5.17351 5.47617 5.07018 5.55453 4.99399C5.63289 4.9178 5.73918 4.875 5.85 4.875C5.96082 4.875 6.06711 4.9178 6.14547 4.99399C6.22383 5.07018 6.26786 5.17351 6.26786 5.28125V10.9688C6.26786 11.0765 6.22383 11.1798 6.14547 11.256C6.06711 11.3322 5.96082 11.375 5.85 11.375C5.73918 11.375 5.63289 11.3322 5.55453 11.256C5.47617 11.1798 5.43214 11.0765 5.43214 10.9688V5.28125ZM2.925 5.28125C2.925 5.17351 2.96902 5.07018 3.04739 4.99399C3.12575 4.9178 3.23203 4.875 3.34286 4.875C3.45368 4.875 3.55996 4.9178 3.63833 4.99399C3.71669 5.07018 3.76071 5.17351 3.76071 5.28125V10.9688C3.76071 11.0765 3.71669 11.1798 3.63833 11.256C3.55996 11.3322 3.45368 11.375 3.34286 11.375C3.23203 11.375 3.12575 11.3322 3.04739 11.256C2.96902 11.1798 2.925 11.0765 2.925 10.9688V5.28125ZM11.2821 0.812504H8.14821L7.90272 0.3377C7.85072 0.236192 7.77062 0.150805 7.67142 0.0911462C7.57222 0.0314874 7.45787 -7.68819e-05 7.34123 4.45167e-06H4.35616C4.23978 -0.000430503 4.12563 0.031016 4.02679 0.0907413C3.92794 0.150466 3.8484 0.236055 3.79728 0.3377L3.55179 0.812504H0.417857C0.307035 0.812504 0.200751 0.855305 0.122388 0.931492C0.0440241 1.00768 0 1.11101 0 1.21875L0 2.03125C0 2.139 0.0440241 2.24233 0.122388 2.31852C0.200751 2.3947 0.307035 2.4375 0.417857 2.4375H11.2821C11.393 2.4375 11.4993 2.3947 11.5776 2.31852C11.656 2.24233 11.7 2.139 11.7 2.03125V1.21875C11.7 1.11101 11.656 1.00768 11.5776 0.931492C11.4993 0.855305 11.393 0.812504 11.2821 0.812504Z" fill="#FFFFFF"/>
</svg>
