<svg width="18" height="14" viewBox="0 0 18 14" fill="none" xmlns="http://www.w3.org/2000/svg">
<path d="M11.1222 9.33333H12.4056C12.6194 9.33333 12.8333 9.1 12.8333 8.86667V3.96667C12.8333 3.73333 12.6194 3.5 12.4056 3.5H11.1222C10.9083 3.5 10.6944 3.73333 10.6944 3.96667V8.86667C10.6944 9.1 10.9083 9.33333 11.1222 9.33333ZM14.3306 9.33333H15.6139C15.8278 9.33333 16.0417 9.1 16.0417 8.86667V0.466667C16.0417 0.233333 15.8278 0 15.6139 0H14.3306C14.1167 0 13.9028 0.233333 13.9028 0.466667V8.86667C13.9028 9.1 14.1167 9.33333 14.3306 9.33333ZM4.70556 9.33333H5.98889C6.20278 9.33333 6.41667 9.1 6.41667 8.86667V6.3C6.41667 6.06667 6.20278 5.83333 5.98889 5.83333H4.70556C4.49167 5.83333 4.27778 6.06667 4.27778 6.3V8.86667C4.27778 9.1 4.49167 9.33333 4.70556 9.33333ZM7.91389 9.33333H9.19722C9.41111 9.33333 9.625 9.1 9.625 8.86667V1.63333C9.625 1.4 9.41111 1.16667 9.19722 1.16667H7.91389C7.7 1.16667 7.48611 1.4 7.48611 1.63333V8.86667C7.48611 9.1 7.7 9.33333 7.91389 9.33333ZM16.5764 11.6667H2.13889V0.583333C2.13889 0.261042 1.8996 0 1.60417 0H0.534722C0.239288 0 0 0.261042 0 0.583333V12.8333C0 13.4776 0.478911 14 1.06944 14H16.5764C16.8718 14 17.1111 13.739 17.1111 13.4167V12.25C17.1111 11.9277 16.8718 11.6667 16.5764 11.6667Z" fill="url(#paint0_linear)"/>
<defs>
<linearGradient id="paint0_linear" x1="13.9789" y1="-1.46352e-05" x2="-34.0811" y2="6.20312" gradientUnits="userSpaceOnUse">
<stop stop-color="#803C8A"/>
<stop offset="1" stop-color="#FFCDCE"/>
</linearGradient>
</defs>
</svg>
