<svg width="15" height="14" viewBox="0 0 15 14" fill="none" xmlns="http://www.w3.org/2000/svg">
<path d="M4.82143 14H1.60714C0.719866 14 0 13.3281 0 12.5V1.5C0 0.671875 0.719866 0 1.60714 0H4.82143C5.7087 0 6.42857 0.671875 6.42857 1.5V12.5C6.42857 13.3281 5.7087 14 4.82143 14ZM15 12.5V1.5C15 0.671875 14.2801 0 13.3929 0H10.1786C9.29129 0 8.57143 0.671875 8.57143 1.5V12.5C8.57143 13.3281 9.29129 14 10.1786 14H13.3929C14.2801 14 15 13.3281 15 12.5Z" fill="url(#paint0_linear)"/>
<defs>
<linearGradient id="paint0_linear" x1="12.2542" y1="-1.46352e-05" x2="-30.0367" y2="4.78505" gradientUnits="userSpaceOnUse">
<stop stop-color="#803C8A"/>
<stop offset="1" stop-color="#FFCDCE"/>
</linearGradient>
</defs>
</svg>
