<svg width="13" height="14" viewBox="0 0 13 14" fill="none" xmlns="http://www.w3.org/2000/svg">
<path d="M7.48611 3.71875V0H0.802083C0.357596 0 0 0.292578 0 0.65625V13.3438C0 13.7074 0.357596 14 0.802083 14H12.0313C12.4757 14 12.8333 13.7074 12.8333 13.3438V4.375H8.2882C7.84705 4.375 7.48611 4.07969 7.48611 3.71875ZM9.625 10.1719C9.625 10.3523 9.44453 10.5 9.22396 10.5H3.60938C3.3888 10.5 3.20833 10.3523 3.20833 10.1719V9.95312C3.20833 9.77266 3.3888 9.625 3.60938 9.625H9.22396C9.44453 9.625 9.625 9.77266 9.625 9.95312V10.1719ZM9.625 8.42188C9.625 8.60234 9.44453 8.75 9.22396 8.75H3.60938C3.3888 8.75 3.20833 8.60234 3.20833 8.42188V8.20312C3.20833 8.02266 3.3888 7.875 3.60938 7.875H9.22396C9.44453 7.875 9.625 8.02266 9.625 8.20312V8.42188ZM9.625 6.45312V6.67188C9.625 6.85234 9.44453 7 9.22396 7H3.60938C3.3888 7 3.20833 6.85234 3.20833 6.67188V6.45312C3.20833 6.27266 3.3888 6.125 3.60938 6.125H9.22396C9.44453 6.125 9.625 6.27266 9.625 6.45312ZM12.8333 3.3332V3.5H8.55556V0H8.75942C8.97331 0 9.17717 0.0683594 9.32756 0.191406L12.5994 2.87109C12.7498 2.99414 12.8333 3.16094 12.8333 3.3332Z" fill="url(#paint0_linear)"/>
<defs>
<linearGradient id="paint0_linear" x1="10.4842" y1="-1.46352e-05" x2="-25.8211" y2="3.51444" gradientUnits="userSpaceOnUse">
<stop stop-color="#803C8A"/>
<stop offset="1" stop-color="#FFCDCE"/>
</linearGradient>
</defs>
</svg>
