<svg width="19" height="20" viewBox="0 0 19 20" fill="none" xmlns="http://www.w3.org/2000/svg">
<path d="M18.1818 5.625C18.1818 3.89844 16.4867 2.5 14.3939 2.5C12.3011 2.5 10.6061 3.89844 10.6061 5.625C10.6061 7.04688 11.7566 8.24609 13.3286 8.625C13.3002 9.25391 13.1297 9.73828 12.8078 10.0664C12.0786 10.8164 10.4735 10.9414 8.77367 11.0703C7.43845 11.1719 6.05587 11.2812 4.92424 11.7305V6.10547C6.46307 5.70703 7.57576 4.52344 7.57576 3.125C7.57576 1.39844 5.88068 0 3.78788 0C1.69508 0 0 1.39844 0 3.125C0 4.52344 1.11269 5.70703 2.65152 6.10547V13.8906C1.11269 14.293 0 15.4766 0 16.875C0 18.6016 1.69508 20 3.78788 20C5.88068 20 7.57576 18.6016 7.57576 16.875C7.57576 15.5469 6.57197 14.4102 5.15152 13.9609C5.2983 13.7578 5.52083 13.5781 5.85701 13.4375C6.62405 13.1172 7.76989 13.0313 8.98674 12.9375C10.9848 12.7852 13.2481 12.6094 14.5833 11.2422C15.2462 10.5625 15.5824 9.6875 15.6061 8.58984C17.1023 8.16797 18.1818 7 18.1818 5.625ZM3.78788 2.5C4.20455 2.5 4.54545 2.78125 4.54545 3.125C4.54545 3.46875 4.20455 3.75 3.78788 3.75C3.37121 3.75 3.0303 3.46875 3.0303 3.125C3.0303 2.78125 3.37121 2.5 3.78788 2.5ZM3.78788 17.5C3.37121 17.5 3.0303 17.2188 3.0303 16.875C3.0303 16.5312 3.37121 16.25 3.78788 16.25C4.20455 16.25 4.54545 16.5312 4.54545 16.875C4.54545 17.2188 4.20455 17.5 3.78788 17.5ZM14.3939 5C14.8106 5 15.1515 5.28125 15.1515 5.625C15.1515 5.96875 14.8106 6.25 14.3939 6.25C13.9773 6.25 13.6364 5.96875 13.6364 5.625C13.6364 5.28125 13.9773 5 14.3939 5Z" fill="white"/>
</svg>
