<svg width="18" height="20" viewBox="0 0 18 20" fill="none" xmlns="http://www.w3.org/2000/svg">
<path d="M10.5 5.3125V0H1.125C0.501562 0 0 0.417969 0 0.9375V19.0625C0 19.582 0.501562 20 1.125 20H16.875C17.4984 20 18 19.582 18 19.0625V6.25H11.625C11.0063 6.25 10.5 5.82812 10.5 5.3125ZM13.5 14.5312C13.5 14.7891 13.2469 15 12.9375 15H5.0625C4.75313 15 4.5 14.7891 4.5 14.5312V14.2188C4.5 13.9609 4.75313 13.75 5.0625 13.75H12.9375C13.2469 13.75 13.5 13.9609 13.5 14.2188V14.5312ZM13.5 12.0312C13.5 12.2891 13.2469 12.5 12.9375 12.5H5.0625C4.75313 12.5 4.5 12.2891 4.5 12.0312V11.7188C4.5 11.4609 4.75313 11.25 5.0625 11.25H12.9375C13.2469 11.25 13.5 11.4609 13.5 11.7188V12.0312ZM13.5 9.21875V9.53125C13.5 9.78906 13.2469 10 12.9375 10H5.0625C4.75313 10 4.5 9.78906 4.5 9.53125V9.21875C4.5 8.96094 4.75313 8.75 5.0625 8.75H12.9375C13.2469 8.75 13.5 8.96094 13.5 9.21875ZM18 4.76172V5H12V0H12.2859C12.5859 0 12.8719 0.0976562 13.0828 0.273438L17.6719 4.10156C17.8828 4.27734 18 4.51562 18 4.76172Z" fill="white"/>
</svg>
