<svg width="18" height="17" viewBox="0 0 67 66" fill="none" xmlns="http://www.w3.org/2000/svg">
    <path d="M15.8945 42.6117L25.7329 32.8268M31.6877 32.8268L41.1808 41.7458M46.7041 41.1397L58.3548 24.8603M9.59452 11.5251H16.1534M9.68082 16.5475H22.0219M63.9644 57.0726V64H2V2H9.59452M17.189 45.5559C17.189 47.8992 15.2958 49.7989 12.9603 49.7989C10.6248 49.7989 8.73151 47.8992 8.73151 45.5559C8.73151 43.2125 10.6248 41.3128 12.9603 41.3128C15.2958 41.3128 17.189 43.2125 17.189 45.5559ZM32.9822 29.7961C32.9822 32.1394 31.0889 34.0391 28.7534 34.0391C26.4179 34.0391 24.5247 32.1394 24.5247 29.7961C24.5247 27.4527 26.4179 25.5531 28.7534 25.5531C31.0889 25.5531 32.9822 27.4527 32.9822 29.7961ZM48.5164 44.6034C48.5164 46.9467 46.6232 48.8464 44.2877 48.8464C41.9522 48.8464 40.0589 46.9467 40.0589 44.6034C40.0589 42.26 41.9522 40.3603 44.2877 40.3603C46.6232 40.3603 48.5164 42.26 48.5164 44.6034ZM65 21.3966C65 23.74 63.1067 25.6397 60.7712 25.6397C58.4358 25.6397 56.5425 23.74 56.5425 21.3966C56.5425 19.0533 58.4358 17.1536 60.7712 17.1536C63.1067 17.1536 65 19.0533 65 21.3966Z"
          stroke="url(#paint0_linear)" stroke-width="2.5" stroke-miterlimit="10" stroke-linejoin="round"/>
    <defs>
        <linearGradient id="paint0_linear" x1="53.4678" y1="1.99994" x2="-124.38" y2="21.0842"
                        gradientUnits="userSpaceOnUse">
            <stop stop-color="#803C8A"/>
            <stop offset="1" stop-color="#FFCDCE"/>
        </linearGradient>
    </defs>
</svg>
