<svg width="52" height="51" viewBox="0 0 52 51" fill="none" xmlns="http://www.w3.org/2000/svg">
    <path d="M33.6198 43.38L27.3447 49.6552C26.9711 50.0287 26.5229 50.2154 26 50.2154C25.4771 50.2154 25.0289 50.0287 24.6553 49.6552L18.3802 43.38C17.7826 42.7824 17.6518 42.0914 17.988 41.307C18.3242 40.5226 18.9031 40.1304 19.7249 40.1304L23.7589 40.1304V28.1404H11.7689L11.7689 32.1745C11.7689 32.9962 11.3767 33.5752 10.5923 33.9113C9.80793 34.2475 9.11692 34.1168 8.51929 33.5191L2.24417 27.244C1.87065 26.8705 1.68389 26.4223 1.68389 25.8993C1.68389 25.3764 1.87065 24.9282 2.24416 24.5547L8.51929 18.2795C9.11692 17.6819 9.80793 17.5512 10.5923 17.8873C11.3767 18.2235 11.7689 18.8025 11.7689 19.6242L11.7689 23.6582H23.7589V11.6682L19.7249 11.6682C18.9031 11.6682 18.3242 11.276 17.988 10.4917C17.6518 9.70727 17.7826 9.01626 18.3802 8.41862L24.6553 2.1435C25.0288 1.76998 25.4771 1.58322 26 1.58322C26.5229 1.58322 26.9712 1.76998 27.3447 2.1435L33.6198 8.41862C34.2174 9.01626 34.3482 9.70727 34.012 10.4917C33.6758 11.276 33.0969 11.6682 32.2751 11.6682L28.2411 11.6682V23.6582H40.2311L40.2311 19.6242C40.2311 18.8025 40.6233 18.2235 41.4077 17.8873C42.1921 17.5512 42.8831 17.6819 43.4807 18.2795L49.7558 24.5547C50.1294 24.9282 50.3161 25.3764 50.3161 25.8993C50.3161 26.4223 50.1294 26.8705 49.7558 27.244L43.4807 33.5191C42.8831 34.1168 42.1921 34.2475 41.4077 33.9113C40.6233 33.5752 40.2311 32.9962 40.2311 32.1745L40.2311 28.1404H28.2411V40.1304L32.2751 40.1304C33.0969 40.1304 33.6758 40.5226 34.012 41.307C34.3482 42.0914 34.2174 42.7824 33.6198 43.38Z" fill="url(#paint0_linear)"/>
    <defs>
        <linearGradient id="paint0_linear" x1="46.5059" y1="21.3046" x2="-31.8635" y2="-42.0936" gradientUnits="userSpaceOnUse">
            <stop stop-color="#803C8A"/>
            <stop offset="1" stop-color="#FFCDCE"/>
        </linearGradient>
    </defs>
</svg>
