<svg width="128" height="128" viewBox="0 0 128 128" fill="none" xmlns="http://www.w3.org/2000/svg">
<path d="M128 93.0786V85.6099C128 82.3801 125.367 79.5541 121.924 79.5541H120.304C120.304 79.1504 120.304 78.9486 120.304 78.5448V71.0761C120.304 67.8464 117.671 65.0204 114.228 65.0204H100.051V2.44447C100.051 1.03146 98.8354 0.0221723 97.6203 0.0221723H2.43038C1.21519 -0.179685 0 1.03146 0 2.24261V125.578C0 126.991 1.21519 128 2.43038 128H121.722C124.962 128 127.797 125.376 127.797 121.944V114.476C127.797 111.246 125.165 108.42 121.722 108.42H117.063C117.063 108.016 117.063 107.814 117.063 107.411V99.9418C117.063 99.5381 117.063 99.3362 117.063 98.9325H121.722C125.165 99.1343 128 96.5102 128 93.0786ZM122.937 85.6099V93.0786C122.937 93.6842 122.532 94.0879 121.924 94.0879H84.0506C83.443 94.0879 83.038 93.6842 83.038 93.0786V85.6099C83.038 85.0043 83.443 84.6006 84.0506 84.6006H121.924C122.532 84.6006 122.937 85.0043 122.937 85.6099ZM115.241 71.0761V78.5448C115.241 79.1504 114.835 79.5541 114.228 79.5541H76.3544C75.7468 79.5541 75.3418 79.1504 75.3418 78.5448V71.0761C75.3418 70.4705 75.7468 70.0668 76.3544 70.0668H114.228C114.835 70.0668 115.241 70.4705 115.241 71.0761ZM5.06329 123.155V4.86676H95.1899V65.0204H76.3544C73.1139 65.0204 70.2785 67.6445 70.2785 71.0761V78.5448C70.2785 81.7746 72.9114 84.6006 76.3544 84.6006H77.9747C77.9747 85.0043 77.9747 85.2062 77.9747 85.6099V93.0786C77.9747 93.4823 77.9747 93.6842 77.9747 94.0879H73.519C70.2785 94.0879 67.443 96.7121 67.443 100.144V107.612C67.443 110.842 70.076 113.668 73.519 113.668H77.9747C77.9747 114.072 77.9747 114.274 77.9747 114.677V122.146C77.9747 122.55 77.9747 122.752 77.9747 123.155H5.06329ZM122.937 114.677V122.146C122.937 122.752 122.532 123.155 121.924 123.155H84.0506C83.443 123.155 83.038 122.752 83.038 122.146V114.677C83.038 114.072 83.443 113.668 84.0506 113.668H121.924C122.532 113.668 122.937 114.072 122.937 114.677ZM112.405 100.144V107.612C112.405 108.218 112 108.622 111.392 108.622H73.519C72.9114 108.622 72.5063 108.218 72.5063 107.612V100.144C72.5063 99.5381 72.9114 99.1343 73.519 99.1343H111.392C112 99.1343 112.405 99.5381 112.405 100.144Z" fill="#FB838B"/>
<path d="M40.1013 32.5213L53.2658 45.642C53.6709 46.0457 54.481 46.4495 55.0886 46.4495C55.6962 46.4495 56.3038 46.2476 56.9114 45.642L78.9873 23.6395V28.686H84.0506V17.5838C84.0506 16.1708 82.8354 15.1615 81.6203 15.1615H71.4937V20.208H75.5443L55.0886 40.3937L41.9241 27.273C40.9114 26.2637 39.2911 26.2637 38.2785 27.273L17.2152 48.2662L20.8608 51.8996L40.1013 32.5213Z" fill="#FB838B"/>
<path d="M57.9241 68.2501H20.6582V73.2965H57.9241V68.2501Z" fill="#FB838B"/>
<path d="M57.9241 82.9857H13.9747V88.0322H57.9241V82.9857Z" fill="#FB838B"/>
<path d="M57.9241 95.5009H13.9747V100.547H57.9241V95.5009Z" fill="#FB838B"/>
<path d="M57.9241 110.237H13.9747V115.283H57.9241V110.237Z" fill="#FB838B"/>
</svg>
