<svg width="134" height="130" viewBox="0 0 134 130" fill="none" xmlns="http://www.w3.org/2000/svg">
<path d="M32.3459 23.2282C32.3459 13.0781 40.4808 4.87988 50.5526 4.87988H89.4839C99.5556 4.87988 107.691 13.0781 107.691 23.2282V26.9369H112.533V23.2282C112.726 10.5405 102.267 0 89.4839 0H50.5526C37.7692 0 27.5037 10.5405 27.5037 23.2282V39.2342H32.3459V23.2282Z" fill="#FA6C5A"/>
<path d="M112.726 52.8979V48.4084H107.884V53.4835C107.884 53.8739 107.884 54.2643 108.078 54.6547L115.825 70.6607H110.208C108.853 70.6607 107.884 71.8318 107.884 73.003V80.03C107.884 90.1802 99.7493 98.3784 89.6776 98.3784H75.3446C73.9888 98.3784 73.0204 99.5495 73.0204 100.721V125.315H32.3459V64.024H27.5037V127.658C27.5037 129.024 28.6658 130 29.828 130H75.151C76.5068 130 77.4752 128.829 77.4752 127.658V103.258H89.2902C102.074 103.258 112.339 92.7177 112.339 80.03V75.5405H119.506C120.28 75.5405 121.055 75.1501 121.636 74.3694C122.023 73.5886 122.217 72.8078 121.83 72.027L112.726 52.8979Z" fill="#FA6C5A"/>
<path d="M132.87 20.8859C132.483 20.3003 131.902 19.9099 131.32 19.9099L117.375 18.1532L116.794 23.033L124.541 24.009L99.5556 41.7718L85.6101 35.7207C84.6417 35.3303 83.4795 35.5255 82.7048 36.5015L68.1782 54.8498L46.2914 38.8438C45.5167 38.2583 44.3546 38.2583 43.5798 38.6486L17.8193 54.4595C15.8824 52.8979 13.5582 51.9219 10.8465 51.9219C4.8422 51.9219 0 56.8018 0 62.8529C0 68.9039 4.8422 73.7838 10.8465 73.7838C16.8509 73.7838 21.6931 68.9039 21.6931 62.8529C21.6931 61.2913 21.3057 59.7297 20.7246 58.5586L44.7419 43.7237L67.2097 60.1201C67.5971 60.5105 68.1782 60.5105 68.5656 60.5105C69.3403 60.5105 69.9214 60.1201 70.5024 59.5345L85.4164 40.7958L98.7809 46.6517C99.5556 47.042 100.524 46.8468 101.105 46.4565L127.64 27.7177L126.091 36.5015L130.933 37.2823L133.257 22.8378C133.451 22.0571 133.257 21.4715 132.87 20.8859ZM11.0402 68.7087C7.74752 68.7087 5.03589 65.976 5.03589 62.6577C5.03589 59.3393 7.74752 56.6066 11.0402 56.6066C14.3329 56.6066 17.0445 59.3393 17.0445 62.6577C16.8509 65.976 14.1392 68.7087 11.0402 68.7087Z" fill="#FA6C5A"/>
</svg>
