<svg width="146" height="104" viewBox="0 0 146 104" fill="none" xmlns="http://www.w3.org/2000/svg">
<path d="M24.74 56.7696C18.2049 56.7696 12.8368 51.4183 12.8368 44.9038C12.8368 38.3893 18.2049 33.038 24.74 33.038C31.2751 33.038 36.6432 38.3893 36.6432 44.9038C36.6432 51.4183 31.2751 56.7696 24.74 56.7696ZM24.74 37.6913C20.7722 37.6913 17.5047 40.9485 17.5047 44.9038C17.5047 48.8591 20.7722 52.1163 24.74 52.1163C28.7077 52.1163 31.9752 48.8591 31.9752 44.9038C31.9752 40.9485 28.7077 37.6913 24.74 37.6913Z" fill="#803C8A"/>
<path d="M66.2845 75.8479C59.7494 75.8479 54.3813 70.4966 54.3813 63.9821C54.3813 57.4676 59.7494 52.1163 66.2845 52.1163C72.8195 52.1163 78.1876 57.4676 78.1876 63.9821C77.9542 70.4966 72.8195 75.8479 66.2845 75.8479ZM66.2845 56.7696C62.3167 56.7696 59.0492 60.0268 59.0492 63.9821C59.0492 67.9374 62.3167 71.1946 66.2845 71.1946C70.2522 71.1946 73.5197 67.9374 73.5197 63.9821C73.2863 60.0268 70.2522 56.7696 66.2845 56.7696Z" fill="#803C8A"/>
<path d="M105.962 39.3199C99.4267 39.3199 94.0586 33.9687 94.0586 27.4541C94.0586 20.9396 99.4267 15.5884 105.962 15.5884C112.497 15.5884 117.865 20.9396 117.865 27.4541C117.632 33.9687 112.497 39.3199 105.962 39.3199ZM105.962 20.2416C101.994 20.2416 98.7265 23.4989 98.7265 27.4541C98.7265 31.4094 101.994 34.6667 105.962 34.6667C109.929 34.6667 113.197 31.4094 113.197 27.4541C112.964 23.4989 109.929 20.2416 105.962 20.2416Z" fill="#803C8A"/>
<path d="M109.229 88.6443C99.6601 88.6443 91.7246 80.7338 91.7246 71.1946C91.7246 61.6555 99.6601 53.745 109.229 53.745C118.799 53.745 126.734 61.6555 126.734 71.1946C126.501 80.9664 118.799 88.6443 109.229 88.6443ZM109.229 58.6309C102.227 58.6309 96.3925 64.4474 96.3925 71.4273C96.3925 78.4072 102.227 84.2237 109.229 84.2237C116.231 84.2237 122.066 78.4072 122.066 71.4273C121.833 64.2148 116.231 58.6309 109.229 58.6309Z" fill="#803C8A"/>
<path d="M143.772 104C143.305 104 142.605 103.767 142.138 103.535L120.432 84.9217C119.499 83.991 119.265 82.5951 120.199 81.6644C121.132 80.7338 122.533 80.5011 123.466 81.4318L145.172 100.045C146.106 100.975 146.339 102.371 145.406 103.302C144.939 103.767 144.472 104 143.772 104Z" fill="#803C8A"/>
<path d="M122.066 100.743H2.33396C0.933584 100.743 0 99.8121 0 98.4161V2.32662C0 0.930649 0.933584 0 2.33396 0H136.77C138.17 0 139.104 0.930649 139.104 2.32662V78.4072C139.104 79.8031 138.17 80.7338 136.77 80.7338C135.37 80.7338 134.436 79.8031 134.436 78.4072V4.65324H4.66792V96.0895H122.066C123.466 96.0895 124.4 97.0201 124.4 98.4161C124.4 99.8121 123.233 100.743 122.066 100.743Z" fill="#803C8A"/>
<path d="M2.33396 60.2595C1.63377 60.2595 0.700188 59.7942 0.233396 59.0962C-0.233396 58.1655 0 56.5369 1.16698 56.0716L14.0038 48.3937C15.1707 47.6957 16.5711 48.1611 17.2713 49.3244C17.9715 50.4877 17.5047 51.8837 16.3377 52.5817L3.50094 60.2595C3.03415 60.2595 2.80075 60.2595 2.33396 60.2595Z" fill="#803C8A"/>
<path d="M57.182 63.2841C56.9486 63.2841 56.4818 63.2841 56.2484 63.0515L31.7419 52.5817C30.5749 52.1163 30.1081 50.7204 30.5749 49.557C31.0417 48.3937 32.442 47.9284 33.609 48.3937L58.1156 58.8635C59.2826 59.3289 59.7494 60.7248 59.2826 61.8881C58.8158 62.5861 58.1156 63.2841 57.182 63.2841Z" fill="#803C8A"/>
<path d="M73.7531 60.2595C73.0529 60.2595 72.5861 60.0268 72.1193 59.5615C71.1858 58.6309 71.1858 57.2349 72.1193 56.3042L97.3261 32.34C98.2597 31.4094 99.6601 31.4094 100.594 32.34C101.527 33.2707 101.527 34.6667 100.594 35.5973L75.3869 59.5615C74.9201 60.0268 74.2199 60.2595 73.7531 60.2595Z" fill="#803C8A"/>
<path d="M136.77 49.557C136.303 49.557 136.07 49.557 135.603 49.3244L112.964 36.0626C111.797 35.3647 111.563 33.9687 112.03 32.8054C112.73 31.6421 114.131 31.4094 115.298 31.8747L137.937 45.1365C139.104 45.8344 139.337 47.2304 138.871 48.3937C138.404 49.0917 137.704 49.557 136.77 49.557Z" fill="#803C8A"/>
</svg>
