<svg width="150" height="130" viewBox="0 0 150 130" fill="none" xmlns="http://www.w3.org/2000/svg">
<path d="M34.1649 101.78H32.0886C35.1087 98.7699 36.9963 94.4428 36.9963 89.5514C36.9963 80.1447 30.0123 72.6194 21.3295 72.6194C12.6467 72.6194 5.6627 80.1447 5.6627 89.5514C5.6627 94.4428 7.55026 98.7699 10.5704 101.78H8.30529C5.28518 101.78 3.0201 104.602 3.0201 108.365V127.742C3.0201 129.059 4.15264 130 5.28518 130H36.8075C38.1288 130 39.0726 128.871 39.0726 127.742V108.365C39.4501 104.79 37.185 101.78 34.1649 101.78ZM10.3816 89.5514C10.3816 82.7786 15.2893 77.3227 21.3295 77.3227C27.3697 77.3227 32.0886 82.7786 32.0886 89.5514C32.0886 96.3242 27.1809 101.78 21.1407 101.78C15.1005 101.78 10.3816 96.3242 10.3816 89.5514ZM34.7312 125.485H7.92777V108.553C7.92777 107.424 8.30529 106.671 8.49404 106.671H34.1649C34.3537 106.86 34.7312 107.424 34.7312 108.553V125.485Z" fill="#FBAD77"/>
<path d="M124.579 64.7178C129.864 64.7178 134.017 60.5789 134.017 55.3111V9.40666C134.017 4.13893 129.864 0 124.579 0H9.43783C4.15264 0 0 4.13893 0 9.40666V55.3111C0 60.5789 4.15264 64.7178 9.43783 64.7178H51.3418V89.5514C51.3418 90.492 51.908 91.4327 52.8518 91.809C53.0406 91.9971 53.4181 91.9971 53.6068 91.9971C54.3619 91.9971 54.9281 91.6208 55.4944 91.2446L77.9564 64.9059H124.579V64.7178ZM75.1251 60.9551L56.0607 83.1549V62.4602C56.0607 61.1433 54.9281 60.2026 53.7956 60.2026H9.43783C6.79523 60.2026 4.71891 58.1331 4.71891 55.4993V9.40666C4.71891 6.77279 6.79523 4.70333 9.43783 4.70333H124.579C127.222 4.70333 129.298 6.77279 129.298 9.40666V55.3111C129.298 57.945 127.222 60.0145 124.579 60.0145H77.0127C76.2576 60.0145 75.6914 60.3907 75.1251 60.9551Z" fill="#FBAD77"/>
<path d="M142.322 90.6802H117.029V77.1346C117.029 76.1939 116.463 75.2533 115.519 74.877C114.575 74.5007 113.631 74.6889 112.876 75.4414L99.0972 90.492H70.5949C66.8198 90.492 63.7997 93.314 63.7997 96.8886V123.415C63.7997 126.99 66.8198 129.812 70.5949 129.812H142.322C146.098 129.812 149.118 126.99 149.118 123.415V97.0767C149.118 93.5022 146.098 90.6802 142.322 90.6802ZM144.399 123.603C144.399 124.544 143.455 125.297 142.322 125.297H70.5949C69.4624 125.297 68.5186 124.544 68.5186 123.603V97.0767C68.5186 96.136 69.4624 95.3835 70.5949 95.3835H100.23C100.985 95.3835 101.551 95.1954 101.929 94.631L112.31 83.343V93.1259C112.31 94.4428 113.443 95.3835 114.575 95.3835H142.134C143.266 95.3835 144.21 96.136 144.21 97.0767V123.603H144.399Z" fill="#FBAD77"/>
<path d="M37.185 17.1201H16.6106V21.8234H37.185V17.1201Z" fill="#FBAD77"/>
<path d="M77.2014 30.2894H16.6106V34.9928H77.2014V30.2894Z" fill="#FBAD77"/>
<path d="M114.575 43.6469H16.6106V48.3502H114.575V43.6469Z" fill="#FBAD77"/>
<path d="M134.206 117.395H79.2777V122.098H134.206V117.395Z" fill="#FBAD77"/>
<path d="M113.443 108.365H79.2777V113.068H113.443V108.365Z" fill="#FBAD77"/>
<path d="M100.796 99.8987H79.2777V104.602H100.796V99.8987Z" fill="#FBAD77"/>
</svg>
