<svg width="158" height="130" viewBox="0 0 158 130" fill="none" xmlns="http://www.w3.org/2000/svg">
<path d="M22.3509 115.093H11.7287V120.573H22.3509V115.093Z" fill="#1DB4F6"/>
<path d="M109.984 115.093H31.6454V120.573H109.984V115.093Z" fill="#1DB4F6"/>
<path d="M74.1342 65.9865L50.4555 54.3676C49.5703 53.9292 48.6852 53.9292 47.8 54.5868C46.9148 55.0253 46.4722 55.9022 46.4722 56.9983V80.4553C46.4722 81.3322 46.9148 82.2091 47.8 82.8668C48.2426 83.086 48.6852 83.3052 49.349 83.3052C49.7916 83.3052 50.2342 83.3052 50.6768 83.086L74.3555 71.4671C75.2407 71.0287 75.9046 70.1518 75.9046 69.0556C75.9046 67.9595 75.2407 66.6442 74.1342 65.9865ZM52.2259 75.8516V61.3828L66.8314 68.6172L52.2259 75.8516Z" fill="#1DB4F6"/>
<path d="M151.809 0H87.412C84.0925 0 81.437 2.63069 81.437 5.91906V21.9224H2.65555C1.10648 21.9224 0 23.2378 0 24.5531V127.369C0 128.904 1.32778 130 2.65555 130H119.5C121.049 130 122.155 128.685 122.155 127.369V69.2749L133.442 49.9831H151.588C154.907 49.9831 157.563 47.3524 157.563 44.0641V5.91906C157.784 2.63069 155.129 0 151.809 0ZM5.5324 27.6223H81.437V43.8449C81.437 47.1332 84.0925 49.7639 87.412 49.7639H116.844V105.447H5.5324V27.6223ZM116.844 124.958H5.5324V111.147H116.844V124.958ZM152.252 43.8449C152.252 44.0641 152.03 44.2833 151.809 44.2833H131.893C131.007 44.2833 129.901 44.7218 129.458 45.5986L122.377 58.0944V46.914C122.377 45.3794 121.049 44.2833 119.721 44.2833H87.412C87.1907 44.2833 86.9694 44.0641 86.9694 43.8449V5.91906C86.9694 5.69983 87.1907 5.48061 87.412 5.48061H151.809C152.03 5.48061 152.252 5.69983 152.252 5.91906V43.8449Z" fill="#1DB4F6"/>
<path d="M112.64 10.9612H96.0425V16.4418H112.64V10.9612Z" fill="#1DB4F6"/>
<path d="M135.212 22.1417H96.0425V27.6223H135.212V22.1417Z" fill="#1DB4F6"/>
<path d="M145.834 32.8836H96.0425V38.3643H145.834V32.8836Z" fill="#1DB4F6"/>
</svg>
