<svg width="89" height="122" viewBox="0 0 89 122" fill="none" xmlns="http://www.w3.org/2000/svg">
<path d="M89 25.3037C89 25.123 89 24.9422 88.8255 24.7615V24.5807C88.651 24.4 88.651 24.0385 88.4765 23.8578L66.1392 0.722963C65.9647 0.542222 65.7902 0.361481 65.4412 0.361481H65.2667C65.0922 0 64.9176 0 64.7431 0H2.09412C1.04706 0 0 1.08444 0 2.16889V119.831C0 121.096 1.04706 122 2.09412 122H86.7314C87.9529 122 88.8255 120.916 88.8255 119.831L89 25.3037ZM81.6706 23.1348H66.8372V7.77185L81.6706 23.1348ZM4.36274 117.662V4.51852H62.4745V25.3037C62.4745 26.5689 63.5216 27.4726 64.5686 27.4726H84.6373V117.481H4.36274V117.662Z" fill="#8264E6"/>
<path d="M33.1569 45.5467V34.883C33.1569 32.5333 31.9353 30.7259 30.1902 30.3644C31.2373 28.7378 31.9353 26.7496 31.9353 24.4C31.9353 18.6163 27.7471 14.0978 22.6863 14.0978C17.6255 14.0978 13.4373 18.797 13.4373 24.4C13.4373 26.5689 14.1353 28.557 15.1824 30.3644C13.4373 30.7259 12.2157 32.5333 12.2157 34.883V45.5467C12.2157 46.8119 13.2627 47.7155 14.3098 47.7155H31.0627C32.2843 47.7155 33.1569 46.6311 33.1569 45.5467ZM22.6863 18.4356C25.3039 18.4356 27.5725 20.9659 27.5725 24.2193C27.5725 27.4726 25.3039 30.003 22.6863 30.003C20.0686 30.003 17.8 27.4726 17.8 24.2193C17.8 20.9659 19.8941 18.4356 22.6863 18.4356ZM28.7941 43.197H16.4039V34.7022C16.4039 34.7022 16.4039 34.7022 16.4039 34.5215H28.7941C28.7941 34.5215 28.7941 34.5215 28.7941 34.7022V43.197Z" fill="#8264E6"/>
<path d="M70.851 58.9215H25.4784V63.44H70.851V58.9215Z" fill="#8264E6"/>
<path d="M70.851 73.3807H15.5314V77.8993H70.851V73.3807Z" fill="#8264E6"/>
<path d="M70.851 88.2015H15.5314V92.72H70.851V88.2015Z" fill="#8264E6"/>
<path d="M70.851 102.841H15.5314V107.36H70.851V102.841Z" fill="#8264E6"/>
<path d="M54.9706 44.1007H46.0706V48.6193H54.9706V44.1007Z" fill="#8264E6"/>
<path d="M70.851 44.1007H61.951V48.6193H70.851V44.1007Z" fill="#8264E6"/>
</svg>
