<svg width="14" height="14" viewBox="0 0 14 14" fill="none" xmlns="http://www.w3.org/2000/svg">
<path d="M0 5.14844V1.51562C0 1.32031 0.0683594 1.1543 0.205078 1.01758C0.341797 0.880859 0.507812 0.8125 0.703125 0.8125H4.33594C4.57031 0.8125 4.6875 0.929688 4.6875 1.16406V2.33594C4.6875 2.57031 4.57031 2.6875 4.33594 2.6875H1.875V5.14844C1.875 5.38281 1.75781 5.5 1.52344 5.5H0.351562C0.117188 5.5 0 5.38281 0 5.14844ZM8.4375 1.16406C8.4375 0.929688 8.55469 0.8125 8.78906 0.8125H12.4219C12.6172 0.8125 12.7832 0.880859 12.9199 1.01758C13.0566 1.1543 13.125 1.32031 13.125 1.51562V5.14844C13.125 5.38281 13.0078 5.5 12.7734 5.5H11.6016C11.3672 5.5 11.25 5.38281 11.25 5.14844V2.6875H8.78906C8.55469 2.6875 8.4375 2.57031 8.4375 2.33594V1.16406ZM12.7734 9.25C13.0078 9.25 13.125 9.36719 13.125 9.60156V13.2344C13.125 13.4297 13.0566 13.5957 12.9199 13.7324C12.7832 13.8691 12.6172 13.9375 12.4219 13.9375H8.78906C8.55469 13.9375 8.4375 13.8203 8.4375 13.5859V12.4141C8.4375 12.1797 8.55469 12.0625 8.78906 12.0625H11.25V9.60156C11.25 9.36719 11.3672 9.25 11.6016 9.25H12.7734ZM4.6875 13.5859C4.6875 13.8203 4.57031 13.9375 4.33594 13.9375H0.703125C0.507812 13.9375 0.341797 13.8691 0.205078 13.7324C0.0683594 13.5957 0 13.4297 0 13.2344V9.60156C0 9.36719 0.117188 9.25 0.351562 9.25H1.52344C1.75781 9.25 1.875 9.36719 1.875 9.60156V12.0625H4.33594C4.57031 12.0625 4.6875 12.1797 4.6875 12.4141V13.5859Z" fill="white"/>
</svg>
