<svg width="43" height="40" viewBox="0 0 43 40" fill="none" xmlns="http://www.w3.org/2000/svg">
<g filter="url(#filter0_d)">
<path d="M17.7915 11.7294H17.129V16.2122H17.7915V11.7294Z" fill="#3FD260"/>
<path d="M26.1383 20.2175H25.4758V17.8302H9.36522V20.2175H8.70277V17.4854C8.70277 17.2997 8.86176 17.1671 9.02074 17.1671H25.7938C25.9793 17.1671 26.1118 17.3262 26.1118 17.4854V20.2175H26.1383Z" fill="#3FD260"/>
<path d="M12.0415 26H6.31797C6.13249 26 6 25.8408 6 25.6817V20.2175C6 20.0318 6.15899 19.8992 6.31797 19.8992H12.0415C12.227 19.8992 12.3594 20.0584 12.3594 20.2175V25.6552C12.3859 25.8408 12.227 26 12.0415 26ZM6.66244 25.3369H11.7235V20.5623H6.66244V25.3369Z" fill="#3FD260"/>
<path d="M20.2822 12.1008H14.5587C14.3733 12.1008 14.2408 11.9416 14.2408 11.7825V6.3183C14.2408 6.13263 14.3998 6 14.5587 6H20.2822C20.4677 6 20.6002 6.15915 20.6002 6.3183V11.756C20.6267 11.9682 20.4677 12.1008 20.2822 12.1008ZM14.9032 11.4377H19.9643V6.66313H14.9032V11.4377Z" fill="#3FD260"/>
<path d="M20.3352 26H14.6117C14.4263 26 14.2938 25.8408 14.2938 25.6817V20.2175C14.2938 20.0318 14.4528 19.8992 14.6117 19.8992H20.3352C20.5207 19.8992 20.6532 20.0584 20.6532 20.2175V25.6552C20.6532 25.8408 20.4942 26 20.3352 26ZM14.9297 25.3369H19.9908V20.5623H14.9297V25.3369Z" fill="#3FD260"/>
<path d="M28.682 26H22.9585C22.773 26 22.6406 25.8408 22.6406 25.6817V20.2175C22.6406 20.0318 22.7995 19.8992 22.9585 19.8992H28.682C28.8675 19.8992 29 20.0584 29 20.2175V25.6552C29 25.8408 28.8675 26 28.682 26ZM23.2765 25.3369H28.3376V20.5623H23.2765V25.3369Z" fill="#3FD260"/>
<path d="M17.7915 18.3873H17.129V20.2175H17.7915V18.3873Z" fill="#3FD260"/>
</g>
<defs>
<filter id="filter0_d" x="0" y="0" width="43" height="40" filterUnits="userSpaceOnUse" color-interpolation-filters="sRGB">
<feFlood flood-opacity="0" result="BackgroundImageFix"/>
<feColorMatrix in="SourceAlpha" type="matrix" values="0 0 0 0 0 0 0 0 0 0 0 0 0 0 0 0 0 0 127 0"/>
<feOffset dx="4" dy="4"/>
<feGaussianBlur stdDeviation="5"/>
<feColorMatrix type="matrix" values="0 0 0 0 0.501961 0 0 0 0 0.235294 0 0 0 0 0.541176 0 0 0 0.22 0"/>
<feBlend mode="normal" in2="BackgroundImageFix" result="effect1_dropShadow"/>
<feBlend mode="normal" in="SourceGraphic" in2="effect1_dropShadow" result="shape"/>
</filter>
</defs>
</svg>
