<svg width="104" height="104" viewBox="0 0 104 104" fill="none" xmlns="http://www.w3.org/2000/svg">
<g filter="url(#filter0_d)">
<circle cx="46" cy="46" r="38" fill="white"/>
</g>
<g filter="url(#filter1_d)">
<path d="M46.5576 36.1724H45.2903V44.9138H46.5576V36.1724Z" fill="#F96079"/>
<path d="M62.5254 52.7241H61.2581V48.0689H30.4378V52.7241H29.1705V47.3965C29.1705 47.0344 29.4747 46.7758 29.7788 46.7758H61.8664C62.2212 46.7758 62.4747 47.0862 62.4747 47.3965V52.7241H62.5254Z" fill="#F96079"/>
<path d="M35.5576 64H24.6083C24.2535 64 24 63.6897 24 63.3793V52.7241C24 52.3621 24.3041 52.1035 24.6083 52.1035H35.5576C35.9124 52.1035 36.1659 52.4138 36.1659 52.7241V63.3276C36.2166 63.6897 35.9124 64 35.5576 64ZM25.2673 62.7069H34.9493V53.3966H25.2673V62.7069Z" fill="#F96079"/>
<path d="M51.3226 36.8965H40.3733C40.0184 36.8965 39.765 36.5862 39.765 36.2759V25.6207C39.765 25.2586 40.0691 25 40.3733 25H51.3226C51.6774 25 51.9309 25.3103 51.9309 25.6207V36.2241C51.9815 36.6379 51.6774 36.8965 51.3226 36.8965ZM41.0322 35.6034H50.7143V26.2931H41.0322V35.6034Z" fill="#F96079"/>
<path d="M51.424 64H40.4746C40.1198 64 39.8664 63.6897 39.8664 63.3793V52.7241C39.8664 52.3621 40.1705 52.1035 40.4746 52.1035H51.424C51.7788 52.1035 52.0323 52.4138 52.0323 52.7241V63.3276C52.0323 63.6897 51.7281 64 51.424 64ZM41.0829 62.7069H50.765V53.3966H41.0829V62.7069Z" fill="#F96079"/>
<path d="M67.3917 64H56.4424C56.0876 64 55.8341 63.6897 55.8341 63.3793V52.7241C55.8341 52.3621 56.1382 52.1035 56.4424 52.1035H67.3917C67.7465 52.1035 68 52.4138 68 52.7241V63.3276C68 63.6897 67.7465 64 67.3917 64ZM57.0507 62.7069H66.7327V53.3966H57.0507V62.7069Z" fill="#F96079"/>
<path d="M46.5576 49.1552H45.2903V52.7241H46.5576V49.1552Z" fill="#F96079"/>
</g>
<defs>
<filter id="filter0_d" x="0" y="0" width="104" height="104" filterUnits="userSpaceOnUse" color-interpolation-filters="sRGB">
<feFlood flood-opacity="0" result="BackgroundImageFix"/>
<feColorMatrix in="SourceAlpha" type="matrix" values="0 0 0 0 0 0 0 0 0 0 0 0 0 0 0 0 0 0 127 0"/>
<feOffset dx="6" dy="6"/>
<feGaussianBlur stdDeviation="7"/>
<feColorMatrix type="matrix" values="0 0 0 0 0.996078 0 0 0 0 0.419608 0 0 0 0 0.541176 0 0 0 0.31 0"/>
<feBlend mode="normal" in2="BackgroundImageFix" result="effect1_dropShadow"/>
<feBlend mode="normal" in="SourceGraphic" in2="effect1_dropShadow" result="shape"/>
</filter>
<filter id="filter1_d" x="18" y="19" width="64" height="59" filterUnits="userSpaceOnUse" color-interpolation-filters="sRGB">
<feFlood flood-opacity="0" result="BackgroundImageFix"/>
<feColorMatrix in="SourceAlpha" type="matrix" values="0 0 0 0 0 0 0 0 0 0 0 0 0 0 0 0 0 0 127 0"/>
<feOffset dx="4" dy="4"/>
<feGaussianBlur stdDeviation="5"/>
<feColorMatrix type="matrix" values="0 0 0 0 0.501961 0 0 0 0 0.235294 0 0 0 0 0.541176 0 0 0 0.22 0"/>
<feBlend mode="normal" in2="BackgroundImageFix" result="effect1_dropShadow"/>
<feBlend mode="normal" in="SourceGraphic" in2="effect1_dropShadow" result="shape"/>
</filter>
</defs>
</svg>
