<svg width="104" height="104" viewBox="0 0 104 104" fill="none" xmlns="http://www.w3.org/2000/svg">
<g filter="url(#filter0_d)">
<circle cx="46" cy="46" r="38" fill="white"/>
</g>
<g filter="url(#filter1_d)">
<path d="M35.6657 49.1652C35.1813 48.8435 34.5892 48.6826 33.9972 48.6826C32.2748 48.6826 30.8754 50.0768 30.8754 51.7928C30.8754 53.5087 32.2748 54.9029 33.9972 54.9029C35.7195 54.9029 37.119 53.5087 37.119 51.7928C37.119 51.2029 36.9575 50.613 36.6346 50.1304L41.4788 45.3043C41.9632 45.6261 42.5552 45.787 43.1473 45.787C43.7932 45.787 44.3314 45.6261 44.8697 45.3043L49.5524 49.6478C49.2833 50.1304 49.1218 50.6667 49.1218 51.2565C49.1218 52.9725 50.5212 54.3667 52.2436 54.3667C53.966 54.3667 55.3654 52.9725 55.3654 51.2565C55.3654 50.4522 55.0425 49.7551 54.5581 49.1652L60.6402 40.6928C61.017 40.8536 61.4476 40.9609 61.8782 40.9609C63.6006 40.9609 65 39.5667 65 37.8507C65 36.1348 63.6006 34.7406 61.8782 34.7406C60.1558 34.7406 58.7564 36.1348 58.7564 37.8507C58.7564 38.6551 59.0793 39.3522 59.5637 39.942L53.4278 48.3609C53.051 48.2 52.6204 48.0928 52.1898 48.0928C51.5439 48.0928 50.9518 48.3072 50.4136 48.629L45.8385 44.3391C46.1615 43.8565 46.3229 43.3203 46.3229 42.6768C46.3229 40.9609 44.9235 39.5667 43.2011 39.5667C41.4788 39.5667 40.0793 40.9609 40.0793 42.6768C40.0793 43.2667 40.2408 43.8565 40.5637 44.3391L35.6657 49.1652ZM33.9972 53.5623C33.0283 53.5623 32.221 52.758 32.221 51.7928C32.221 50.8275 33.0283 50.0232 33.9972 50.0232C34.966 50.0232 35.7734 50.8275 35.7734 51.7928C35.7734 52.758 34.966 53.5623 33.9972 53.5623ZM61.8244 36.0812C62.7932 36.0812 63.6006 36.8855 63.6006 37.8507C63.6006 38.8159 62.7932 39.6203 61.8244 39.6203C60.8555 39.6203 60.0482 38.8159 60.0482 37.8507C60.0482 36.8855 60.8555 36.0812 61.8244 36.0812ZM52.2436 49.487C53.2125 49.487 54.0198 50.2913 54.0198 51.2565C54.0198 52.2217 53.2125 53.0261 52.2436 53.0261C51.2748 53.0261 50.4674 52.2217 50.4674 51.2565C50.4674 50.2913 51.2748 49.487 52.2436 49.487ZM43.2011 40.9609C44.17 40.9609 44.9773 41.7652 44.9773 42.7304C44.9773 43.6957 44.17 44.5 43.2011 44.5C42.2323 44.5 41.4249 43.6957 41.4249 42.7304C41.4249 41.7652 42.2323 40.9609 43.2011 40.9609Z" fill="#3D78F3"/>
<path d="M35.8272 31.4696H32.0595V32.8101H35.8272V31.4696Z" fill="#3D78F3"/>
<path d="M39.272 34.3652H32.1133V35.7058H39.272V34.3652Z" fill="#3D78F3"/>
<path d="M63.0085 61.713H28.3456V27.3406H32.0595V26H27.6459C27.3229 26 27 26.3217 27 26.6435V62.3565C27 62.7319 27.3229 63 27.6459 63H63.6544C64.0312 63 64.3003 62.6783 64.3003 62.3565V58.3884H62.9547V61.713H63.0085Z" fill="#3D78F3"/>
</g>
<defs>
<filter id="filter0_d" x="0" y="0" width="104" height="104" filterUnits="userSpaceOnUse" color-interpolation-filters="sRGB">
<feFlood flood-opacity="0" result="BackgroundImageFix"/>
<feColorMatrix in="SourceAlpha" type="matrix" values="0 0 0 0 0 0 0 0 0 0 0 0 0 0 0 0 0 0 127 0"/>
<feOffset dx="6" dy="6"/>
<feGaussianBlur stdDeviation="7"/>
<feColorMatrix type="matrix" values="0 0 0 0 0.183333 0 0 0 0 0.359576 0 0 0 0 0.733333 0 0 0 0.33 0"/>
<feBlend mode="normal" in2="BackgroundImageFix" result="effect1_dropShadow"/>
<feBlend mode="normal" in="SourceGraphic" in2="effect1_dropShadow" result="shape"/>
</filter>
<filter id="filter1_d" x="7" y="16" width="78" height="77" filterUnits="userSpaceOnUse" color-interpolation-filters="sRGB">
<feFlood flood-opacity="0" result="BackgroundImageFix"/>
<feColorMatrix in="SourceAlpha" type="matrix" values="0 0 0 0 0 0 0 0 0 0 0 0 0 0 0 0 0 0 127 0"/>
<feOffset dy="10"/>
<feGaussianBlur stdDeviation="10"/>
<feColorMatrix type="matrix" values="0 0 0 0 0.431667 0 0 0 0 0.0833333 0 0 0 0 1 0 0 0 0.1 0"/>
<feBlend mode="normal" in2="BackgroundImageFix" result="effect1_dropShadow"/>
<feBlend mode="normal" in="SourceGraphic" in2="effect1_dropShadow" result="shape"/>
</filter>
</defs>
</svg>
