<svg width="56" height="56" viewBox="0 0 56 56" fill="none" xmlns="http://www.w3.org/2000/svg">
<g opacity="0.5">
<path d="M22.8143 26.4359L21.2304 28.0198L33.1889 39.9783L34.7728 38.3944L22.8143 26.4359Z" fill="url(#paint0_linear)"/>
<path d="M33.1097 26.4359L21.1512 38.3944L22.7351 39.9783L34.6936 28.0198L33.1097 26.4359Z" fill="url(#paint1_linear)"/>
<path d="M47.04 56H8.96C4.032 56 0 51.968 0 47.04V8.96C0 4.032 4.032 0 8.96 0H47.04C51.968 0 56 4.032 56 8.96V47.04C56 51.968 51.968 56 47.04 56ZM8.96 2.24C5.264 2.24 2.24 5.264 2.24 8.96V47.04C2.24 50.736 5.264 53.76 8.96 53.76H47.04C50.736 53.76 53.76 50.736 53.76 47.04V8.96C53.76 5.264 50.736 2.24 47.04 2.24H8.96Z" fill="url(#paint2_linear)"/>
<path d="M54.544 13.104H1.456V15.344H54.544V13.104Z" fill="url(#paint3_linear)"/>
<path d="M32.816 7.504H6.272V9.744H32.816V7.504Z" fill="url(#paint4_linear)"/>
<path d="M42 7.504H37.408V9.744H42V7.504Z" fill="url(#paint5_linear)"/>
<path d="M49.616 7.504H45.024V9.744H49.616V7.504Z" fill="url(#paint6_linear)"/>
</g>
<defs>
<linearGradient id="paint0_linear" x1="45.7491" y1="-5.85408e-05" x2="-112.395" y2="16.7005" gradientUnits="userSpaceOnUse">
<stop stop-color="#803C8A"/>
<stop offset="1" stop-color="#FFCDCE"/>
</linearGradient>
<linearGradient id="paint1_linear" x1="45.7491" y1="-5.85408e-05" x2="-112.395" y2="16.7005" gradientUnits="userSpaceOnUse">
<stop stop-color="#803C8A"/>
<stop offset="1" stop-color="#FFCDCE"/>
</linearGradient>
<linearGradient id="paint2_linear" x1="45.7491" y1="-5.85408e-05" x2="-112.395" y2="16.7005" gradientUnits="userSpaceOnUse">
<stop stop-color="#803C8A"/>
<stop offset="1" stop-color="#FFCDCE"/>
</linearGradient>
<linearGradient id="paint3_linear" x1="45.7491" y1="-5.85408e-05" x2="-112.395" y2="16.7005" gradientUnits="userSpaceOnUse">
<stop stop-color="#803C8A"/>
<stop offset="1" stop-color="#FFCDCE"/>
</linearGradient>
<linearGradient id="paint4_linear" x1="45.7491" y1="-5.85408e-05" x2="-112.395" y2="16.7005" gradientUnits="userSpaceOnUse">
<stop stop-color="#803C8A"/>
<stop offset="1" stop-color="#FFCDCE"/>
</linearGradient>
<linearGradient id="paint5_linear" x1="45.7491" y1="-5.85408e-05" x2="-112.395" y2="16.7005" gradientUnits="userSpaceOnUse">
<stop stop-color="#803C8A"/>
<stop offset="1" stop-color="#FFCDCE"/>
</linearGradient>
<linearGradient id="paint6_linear" x1="45.7491" y1="-5.85408e-05" x2="-112.395" y2="16.7005" gradientUnits="userSpaceOnUse">
<stop stop-color="#803C8A"/>
<stop offset="1" stop-color="#FFCDCE"/>
</linearGradient>
</defs>
</svg>
