<svg width="16" height="10" viewBox="0 0 16 10" fill="none" xmlns="http://www.w3.org/2000/svg">
<path d="M0.1 0.321543C0.0333333 0.418006 0 0.514469 0 0.643087V9.38907L5.13333 5.5627L0.1 0.321543Z" fill="#7A637D"/>
<path d="M10.1333 6.30225C9.56667 6.88103 8.8 7.23473 8 7.23473C7.2 7.23473 6.43333 6.91318 5.86667 6.30225L5.6 6.04502L0.366667 9.93569C0.466667 9.96784 0.566667 10 0.666667 10H15.3333C15.4 10 15.4667 10 15.5333 9.96784L10.3333 6.07717L10.1333 6.30225Z" fill="#7A637D"/>
<path d="M8 6.59164C8.63333 6.59164 9.2 6.3344 9.66667 5.88424L15.3 0H0.7L6.33333 5.85209C6.8 6.3344 7.36667 6.59164 8 6.59164Z" fill="#7A637D"/>
<path d="M16 9.48553C16 9.45338 16 9.38907 16 9.35691V0.643087C16 0.514469 15.9667 0.418006 15.9 0.321543L10.8 5.62701L16 9.48553Z" fill="#7A637D"/>
</svg>
