<svg width="12" height="13" viewBox="0 0 12 13" fill="none" xmlns="http://www.w3.org/2000/svg">
<path d="M10.6399 5.6875H10.0015V3.85938C10.0015 1.73164 8.18739 0 5.95833 0C3.72928 0 1.91518 1.73164 1.91518 3.85938V5.6875H1.27679C0.571894 5.6875 0 6.2334 0 6.90625V11.7812C0 12.4541 0.571894 13 1.27679 13H10.6399C11.3448 13 11.9167 12.4541 11.9167 11.7812V6.90625C11.9167 6.2334 11.3448 5.6875 10.6399 5.6875ZM7.87351 5.6875H4.04315V3.85938C4.04315 2.85137 4.90233 2.03125 5.95833 2.03125C7.01434 2.03125 7.87351 2.85137 7.87351 3.85938V5.6875Z" fill="#7A637D"/>
</svg>
