<svg width="23" height="20" viewBox="0 0 23 20" fill="none" xmlns="http://www.w3.org/2000/svg">
<path d="M11.7915 5.72943H11.129V10.2122H11.7915V5.72943Z" fill="#333333"/>
<path d="M20.1383 14.2175H19.4758V11.8302H3.36522V14.2175H2.70277V11.4854C2.70277 11.2997 2.86176 11.1671 3.02074 11.1671H19.7938C19.9793 11.1671 20.1118 11.3262 20.1118 11.4854V14.2175H20.1383Z" fill="#333333"/>
<path d="M6.04148 20H0.317972C0.132489 20 0 19.8408 0 19.6817V14.2175C0 14.0318 0.158986 13.8992 0.317972 13.8992H6.04148C6.22696 13.8992 6.35945 14.0584 6.35945 14.2175V19.6552C6.38595 19.8408 6.22696 20 6.04148 20ZM0.662443 19.3369H5.7235V14.5623H0.662443V19.3369Z" fill="#333333"/>
<path d="M14.2822 6.10079H8.55874C8.37326 6.10079 8.24077 5.94164 8.24077 5.78249V0.318302C8.24077 0.132626 8.39976 0 8.55874 0H14.2822C14.4677 0 14.6002 0.159151 14.6002 0.318302V5.75596C14.6267 5.96817 14.4677 6.10079 14.2822 6.10079ZM8.90321 5.43766H13.9643V0.66313H8.90321V5.43766Z" fill="#333333"/>
<path d="M14.3352 20H8.61175C8.42626 20 8.29377 19.8408 8.29377 19.6817V14.2175C8.29377 14.0318 8.45276 13.8992 8.61175 13.8992H14.3352C14.5207 13.8992 14.6532 14.0584 14.6532 14.2175V19.6552C14.6532 19.8408 14.4942 20 14.3352 20ZM8.92972 19.3369H13.9908V14.5623H8.92972V19.3369Z" fill="#333333"/>
<path d="M22.682 20H16.9585C16.773 20 16.6406 19.8408 16.6406 19.6817V14.2175C16.6406 14.0318 16.7995 13.8992 16.9585 13.8992H22.682C22.8675 13.8992 23 14.0584 23 14.2175V19.6552C23 19.8408 22.8675 20 22.682 20ZM17.2765 19.3369H22.3376V14.5623H17.2765V19.3369Z" fill="#333333"/>
<path d="M11.7915 12.3873H11.129V14.2175H11.7915V12.3873Z" fill="#333333"/>
</svg>
