<svg width="67" height="57" viewBox="0 0 67 57" fill="none" xmlns="http://www.w3.org/2000/svg">
<path d="M5.91724 1V51.4993H66M66 51.4993L61.3724 47.4563M66 51.4993L61.3724 56M2.2 6.03467L5.9931 1L10.0897 6.03467M6.14483 11.8322H0M2.2 18.6976H5.91724M6.14483 24.8003H0M2.2 31.6657H5.91724M6.14483 38.1498H0M2.2 45.0153H5.91724M20.0276 40.362C20.0276 42.4264 18.3633 44.0999 16.3103 44.0999C14.2574 44.0999 12.5931 42.4264 12.5931 40.362C12.5931 38.2976 14.2574 36.6241 16.3103 36.6241C18.3633 36.6241 20.0276 38.2976 20.0276 40.362ZM25.6414 23.2746C25.6414 25.339 23.9771 27.0125 21.9241 27.0125C19.8712 27.0125 18.2069 25.339 18.2069 23.2746C18.2069 21.2103 19.8712 19.5368 21.9241 19.5368C23.9771 19.5368 25.6414 21.2103 25.6414 23.2746ZM35.9586 29.9875C35.9586 32.0519 34.2944 33.7254 32.2414 33.7254C30.1884 33.7254 28.5241 32.0519 28.5241 29.9875C28.5241 27.9232 30.1884 26.2497 32.2414 26.2497C34.2944 26.2497 35.9586 27.9232 35.9586 29.9875ZM45.2897 14.3495C45.2897 16.4139 43.6254 18.0874 41.5724 18.0874C39.5194 18.0874 37.8552 16.4139 37.8552 14.3495C37.8552 12.2851 39.5194 10.6117 41.5724 10.6117C43.6254 10.6117 45.2897 12.2851 45.2897 14.3495ZM54.0138 40.362C54.0138 42.4264 52.3495 44.0999 50.2966 44.0999C48.2436 44.0999 46.5793 42.4264 46.5793 40.362C46.5793 38.2976 48.2436 36.6241 50.2966 36.6241C52.3495 36.6241 54.0138 38.2976 54.0138 40.362ZM59.4 15.7989C59.4 17.8633 57.7357 19.5368 55.6828 19.5368C53.6298 19.5368 51.9655 17.8633 51.9655 15.7989C51.9655 13.7345 53.6298 12.061 55.6828 12.061C57.7357 12.061 59.4 13.7345 59.4 15.7989Z" stroke="url(#paint0_linear)" stroke-width="2" stroke-miterlimit="10" stroke-linejoin="round"/>
<defs>
<linearGradient id="paint0_linear" x1="53.9186" y1="0.999943" x2="-131.565" y2="24.5052" gradientUnits="userSpaceOnUse">
<stop stop-color="#803C8A"/>
<stop offset="1" stop-color="#FFCDCE"/>
</linearGradient>
</defs>
</svg>
