<svg width="61" height="68" viewBox="0 0 61 68" fill="none" xmlns="http://www.w3.org/2000/svg">
<path d="M37.8054 44.9727C30.2294 50.8494 19.4066 50.2984 12.462 43.2281C4.97627 35.6069 4.97627 23.1191 12.462 15.4978C20.038 7.78479 32.2136 7.78479 39.7896 15.406C46.7342 22.4763 47.2753 33.495 41.5032 41.208M37.8054 44.9727C38.4367 44.4218 39.1582 43.8709 39.7896 43.2281M37.8054 44.9727C38.5269 44.4218 39.1582 43.8709 39.7896 43.2281M37.8054 44.9727L55.3924 62.8781L59 59.2052L41.5032 41.208M39.7896 43.2281C40.4209 42.5854 40.962 41.9426 41.5032 41.208M39.7896 43.2281C40.4209 42.5854 40.962 41.8508 41.5032 41.208M48.9889 2.18364L43.307 7.96844M43.1266 2L49.3497 8.33573M9.57595 50.9412L3.89399 56.726M3.8038 50.8494L9.93671 57.0933M28.7864 60.1234L34.4684 65.9082M28.606 66L34.8291 59.7561M50.432 33.9541L56.1139 39.7389M50.2516 39.8307L56.3845 33.5868M2.18038 4.93831L7.86234 10.7231M2 10.9067L8.2231 4.66284M36.0016 19.2626C41.413 24.7719 41.413 33.7704 36.0016 39.3716C30.5902 44.8809 21.7516 44.8809 16.25 39.3716C10.8386 33.8623 10.8386 24.8637 16.25 19.2626C21.7516 13.7532 30.5902 13.7532 36.0016 19.2626ZM32.2136 23.1191C35.5506 26.5165 35.5506 32.1176 32.2136 35.5151C28.8766 38.9125 23.375 38.9125 20.038 35.5151C16.701 32.1176 16.701 26.5165 20.038 23.1191C23.375 19.7217 28.8766 19.7217 32.2136 23.1191Z" stroke="url(#paint0_linear)" stroke-width="2.5" stroke-miterlimit="10" stroke-linecap="round" stroke-linejoin="round"/>
<defs>
<linearGradient id="paint0_linear" x1="48.5661" y1="1.99993" x2="-112.77" y2="17.174" gradientUnits="userSpaceOnUse">
<stop stop-color="#803C8A"/>
<stop offset="1" stop-color="#FFCDCE"/>
</linearGradient>
</defs>
</svg>
