<svg width="12" height="13" viewBox="0 0 12 13" fill="none" xmlns="http://www.w3.org/2000/svg">
<path d="M11.6786 12.1875H11.1429V0.609375C11.1429 0.272822 10.855 0 10.5 0H1.5C1.14496 0 0.857143 0.272822 0.857143 0.609375V12.1875H0.321429C0.14392 12.1875 0 12.3239 0 12.4922V13H12V12.4922C12 12.3239 11.8561 12.1875 11.6786 12.1875ZM3.42857 1.92969C3.42857 1.76142 3.57249 1.625 3.75 1.625H4.82143C4.99894 1.625 5.14286 1.76142 5.14286 1.92969V2.94531C5.14286 3.11358 4.99894 3.25 4.82143 3.25H3.75C3.57249 3.25 3.42857 3.11358 3.42857 2.94531V1.92969ZM3.42857 4.36719C3.42857 4.19892 3.57249 4.0625 3.75 4.0625H4.82143C4.99894 4.0625 5.14286 4.19892 5.14286 4.36719V5.38281C5.14286 5.55108 4.99894 5.6875 4.82143 5.6875H3.75C3.57249 5.6875 3.42857 5.55108 3.42857 5.38281V4.36719ZM4.82143 8.125H3.75C3.57249 8.125 3.42857 7.98858 3.42857 7.82031V6.80469C3.42857 6.63642 3.57249 6.5 3.75 6.5H4.82143C4.99894 6.5 5.14286 6.63642 5.14286 6.80469V7.82031C5.14286 7.98858 4.99894 8.125 4.82143 8.125ZM6.85714 12.1875H5.14286V10.0547C5.14286 9.88642 5.28678 9.75 5.46429 9.75H6.53571C6.71322 9.75 6.85714 9.88642 6.85714 10.0547V12.1875ZM8.57143 7.82031C8.57143 7.98858 8.42751 8.125 8.25 8.125H7.17857C7.00106 8.125 6.85714 7.98858 6.85714 7.82031V6.80469C6.85714 6.63642 7.00106 6.5 7.17857 6.5H8.25C8.42751 6.5 8.57143 6.63642 8.57143 6.80469V7.82031ZM8.57143 5.38281C8.57143 5.55108 8.42751 5.6875 8.25 5.6875H7.17857C7.00106 5.6875 6.85714 5.55108 6.85714 5.38281V4.36719C6.85714 4.19892 7.00106 4.0625 7.17857 4.0625H8.25C8.42751 4.0625 8.57143 4.19892 8.57143 4.36719V5.38281ZM8.57143 2.94531C8.57143 3.11358 8.42751 3.25 8.25 3.25H7.17857C7.00106 3.25 6.85714 3.11358 6.85714 2.94531V1.92969C6.85714 1.76142 7.00106 1.625 7.17857 1.625H8.25C8.42751 1.625 8.57143 1.76142 8.57143 1.92969V2.94531Z" fill="#7A637D"/>
</svg>
