<svg width="67" height="62" viewBox="0 0 67 62" fill="none" xmlns="http://www.w3.org/2000/svg">
<path d="M8.08779 32.7005V31.4505C7.39744 31.4505 6.83779 32.0101 6.83779 32.7005H8.08779ZM16.1756 32.7005H17.4256C17.4256 32.0101 16.8659 31.4505 16.1756 31.4505V32.7005ZM16.1756 60V61.25C16.8659 61.25 17.4256 60.6903 17.4256 60H16.1756ZM8.08779 60H6.83779C6.83779 60.6903 7.39744 61.25 8.08779 61.25V60ZM21.69 24.0602V22.8102C20.9996 22.8102 20.44 23.3699 20.44 24.0602H21.69ZM29.6859 24.0602H30.9359C30.9359 23.3699 30.3762 22.8102 29.6859 22.8102V24.0602ZM29.6859 59.9081V61.1581C30.3762 61.1581 30.9359 60.5984 30.9359 59.9081H29.6859ZM21.69 59.9081H20.44C20.44 60.5984 20.9996 61.1581 21.69 61.1581V59.9081ZM35.2922 33.6196V32.3696C34.6018 32.3696 34.0422 32.9293 34.0422 33.6196H35.2922ZM43.38 33.6196H44.63C44.63 32.9293 44.0703 32.3696 43.38 32.3696V33.6196ZM43.38 60V61.25C44.0703 61.25 44.63 60.6903 44.63 60H43.38ZM35.2922 60H34.0422C34.0422 60.6903 34.6018 61.25 35.2922 61.25V60ZM49.3539 18.9128V17.6628C48.6636 17.6628 48.1039 18.2225 48.1039 18.9128H49.3539ZM57.4417 18.9128H58.6917C58.6917 18.2225 58.1321 17.6628 57.4417 17.6628V18.9128ZM57.4417 60V61.25C58.1321 61.25 58.6917 60.6904 58.6917 60H57.4417ZM49.3539 60H48.1039C48.1039 60.6904 48.6636 61.25 49.3539 61.25V60ZM7.20638 17.8427C6.71686 18.3294 6.71465 19.1209 7.20145 19.6104C7.68824 20.0999 8.47969 20.1021 8.96921 19.6153L7.20638 17.8427ZM24.2634 2.64342L25.2206 1.83949C24.9956 1.57167 24.6687 1.41034 24.3193 1.39468C23.9699 1.37902 23.63 1.51046 23.382 1.75708L24.2634 2.64342ZM37.7737 18.729L36.8165 19.5329C37.0671 19.8313 37.4426 19.9958 37.8318 19.9776C38.2211 19.9595 38.5796 19.7609 38.8014 19.4405L37.7737 18.729ZM49.3539 2L50.5712 1.716C50.4392 1.15024 49.9349 0.75 49.3539 0.75V2ZM49.4233 7.79906C49.5801 8.47136 50.2523 8.88922 50.9246 8.73236C51.5969 8.57551 52.0148 7.90335 51.8579 7.23105L49.4233 7.79906ZM43.4719 0.75C42.7815 0.75 42.2219 1.30964 42.2219 2C42.2219 2.69036 42.7815 3.25 43.4719 3.25V0.75ZM0 61.1581H67V58.6581H0V61.1581ZM8.08779 33.9505H16.1756V31.4505H8.08779V33.9505ZM14.9256 32.7005V60H17.4256V32.7005H14.9256ZM16.1756 58.75H8.08779V61.25H16.1756V58.75ZM9.33779 60V32.7005H6.83779V60H9.33779ZM21.69 25.3102H29.6859V22.8102H21.69V25.3102ZM28.4359 24.0602V59.9081H30.9359V24.0602H28.4359ZM29.6859 58.6581H21.69V61.1581H29.6859V58.6581ZM22.94 59.9081V24.0602H20.44V59.9081H22.94ZM35.2922 34.8696H43.38V32.3696H35.2922V34.8696ZM42.13 33.6196V60H44.63V33.6196H42.13ZM43.38 58.75H35.2922V61.25H43.38V58.75ZM36.5422 60V33.6196H34.0422V60H36.5422ZM49.3539 20.1628H57.4417V17.6628H49.3539V20.1628ZM56.1917 18.9128V60H58.6917V18.9128H56.1917ZM57.4417 58.75H49.3539V61.25H57.4417V58.75ZM50.6039 60V18.9128H48.1039V60H50.6039ZM8.96921 19.6153L25.1448 3.52977L23.382 1.75708L7.20638 17.8427L8.96921 19.6153ZM23.3062 3.44736L36.8165 19.5329L38.7308 17.9251L25.2206 1.83949L23.3062 3.44736ZM38.8014 19.4405L50.3817 2.71146L48.3261 1.28854L36.7459 18.0175L38.8014 19.4405ZM51.8579 7.23105L50.5712 1.716L48.1366 2.284L49.4233 7.79906L51.8579 7.23105ZM49.3539 0.75H43.4719V3.25H49.3539V0.75Z" fill="url(#paint0_linear)"/>
<defs>
<linearGradient id="paint0_linear" x1="54.7356" y1="1.99994" x2="-133.777" y2="24.9966" gradientUnits="userSpaceOnUse">
<stop stop-color="#803C8A"/>
<stop offset="1" stop-color="#FFCDCE"/>
</linearGradient>
</defs>
</svg>
