<svg width="178" height="117" viewBox="0 0 178 117" fill="none" xmlns="http://www.w3.org/2000/svg">
<path d="M25.8283 13.2453H12.4837V18.7642H25.8283V13.2453Z" fill="#52D1CD"/>
<path d="M46.7062 13.2453H33.3615V18.7642H46.7062V13.2453Z" fill="#52D1CD"/>
<path d="M137.32 13.2453H123.976V18.7642H137.32V13.2453Z" fill="#52D1CD"/>
<path d="M175.417 25.6075H157.983V31.1264H167.669L111.277 77.2642L58.3289 64.2396C57.468 64.0189 56.607 64.2396 55.9613 64.9019L5.3809 108.611V31.7887H145.284V38.8528H150.665V2.64906C150.665 1.32453 149.374 0 147.867 0H2.58283C1.29141 0 0 1.32453 0 2.64906V114.351C0 115.896 1.29141 117 2.58283 117H147.867C149.374 117 150.45 115.675 150.45 114.351V62.6943H145.069V111.702H138.181V62.2528L172.619 33.9962V47.683H178V28.2566C178 26.9321 176.924 25.6075 175.417 25.6075ZM119.886 77.4849V111.702H112.568V83.0038C112.999 83.0038 113.214 82.783 113.645 82.5623L119.886 77.4849ZM21.9541 101.547L29.7025 94.9245V111.702H21.9541V101.547ZM16.5732 111.702H10.1161L16.5732 106.183V111.702ZM34.8682 90.2887L42.1862 84.1075V111.923H34.8682V90.2887ZM47.5671 79.4717L55.3156 72.8491V111.923H47.5671V79.4717ZM60.6965 70.4208L68.6602 72.4075V111.702H60.6965V70.4208ZM74.0411 73.7321L81.3591 75.4981V111.702H74.0411V73.7321ZM86.5248 76.8226L94.2733 78.8094V111.702H86.5248V76.8226ZM99.6542 80.134L107.187 81.9V111.702H99.6542V80.134ZM5.3809 5.51887H145.284V26.2698H5.3809V5.51887ZM132.8 111.702H125.052V73.0698L132.8 66.8887V111.702Z" fill="#52D1CD"/>
</svg>
