<svg width="147" height="130" viewBox="0 0 147 130" fill="none" xmlns="http://www.w3.org/2000/svg">
<path d="M75.192 37.2413H70.9678V66.3792H75.192V37.2413Z" fill="#F96079"/>
<path d="M128.418 92.4137H124.194V76.8964H21.4593V92.4137H17.2351V74.655C17.2351 73.4481 18.2489 72.5861 19.2627 72.5861H126.221C127.404 72.5861 128.249 73.6206 128.249 74.655V92.4137H128.418Z" fill="#F96079"/>
<path d="M38.5254 130H2.02765C0.844854 130 0 128.965 0 127.931V92.4138C0 91.2069 1.01383 90.3449 2.02765 90.3449H38.5254C39.7081 90.3449 40.553 91.3793 40.553 92.4138V127.759C40.722 128.966 39.7081 130 38.5254 130ZM4.22427 125.69H36.4977V94.6552H4.22427V125.69Z" fill="#F96079"/>
<path d="M91.0752 39.6551H54.5775C53.3947 39.6551 52.5499 38.6207 52.5499 37.5862V2.06896C52.5499 0.862069 53.5637 0 54.5775 0H91.0752C92.258 0 93.1029 1.03448 93.1029 2.06896V37.4138C93.2718 38.7931 92.258 39.6551 91.0752 39.6551ZM56.7741 35.3448H89.0476V4.31034H56.7741V35.3448Z" fill="#F96079"/>
<path d="M91.4132 130H54.9155C53.7327 130 52.8878 128.965 52.8878 127.931V92.4138C52.8878 91.2069 53.9017 90.3449 54.9155 90.3449H91.4132C92.596 90.3449 93.4408 91.3793 93.4408 92.4138V127.759C93.4408 128.966 92.427 130 91.4132 130ZM56.9431 125.69H89.2166V94.6552H56.9431V125.69Z" fill="#F96079"/>
<path d="M144.639 130H108.141C106.959 130 106.114 128.965 106.114 127.931V92.4138C106.114 91.2069 107.127 90.3449 108.141 90.3449H144.639C145.822 90.3449 146.667 91.3793 146.667 92.4138V127.759C146.667 128.966 145.822 130 144.639 130ZM110.169 125.69H142.442V94.6552H110.169V125.69Z" fill="#F96079"/>
<path d="M75.192 80.5172H70.9678V92.4138H75.192V80.5172Z" fill="#F96079"/>
</svg>
