<svg width="174" height="170" viewBox="0 0 174 170" fill="none" xmlns="http://www.w3.org/2000/svg">
<g filter="url(#filter0_d)">
<path d="M50.4471 91.3913C48.7451 90.2609 46.6649 89.6956 44.5846 89.6956C38.533 89.6956 33.6161 94.5942 33.6161 100.623C33.6161 106.652 38.533 111.551 44.5846 111.551C50.6362 111.551 55.5532 106.652 55.5532 100.623C55.5532 98.5507 54.9858 96.4783 53.8512 94.7826L70.8713 77.8261C72.5733 78.9565 74.6536 79.5217 76.7338 79.5217C79.0031 79.5217 80.8943 78.9565 82.7854 77.8261L99.2382 93.087C98.2926 94.7826 97.7253 96.6667 97.7253 98.7391C97.7253 104.768 102.642 109.667 108.694 109.667C114.745 109.667 119.662 104.768 119.662 98.7391C119.662 95.913 118.528 93.4638 116.826 91.3913L138.195 61.6232C139.519 62.1884 141.032 62.5652 142.545 62.5652C148.597 62.5652 153.514 57.6667 153.514 51.6377C153.514 45.6087 148.597 40.7101 142.545 40.7101C136.493 40.7101 131.576 45.6087 131.576 51.6377C131.576 54.4638 132.711 56.913 134.413 58.9855L112.854 88.5652C111.531 88 110.018 87.6232 108.505 87.6232C106.235 87.6232 104.155 88.3768 102.264 89.5072L86.1894 74.4348C87.3241 72.7391 87.8914 70.8551 87.8914 68.5942C87.8914 62.5652 82.9745 57.6667 76.9229 57.6667C70.8713 57.6667 65.9544 62.5652 65.9544 68.5942C65.9544 70.6667 66.5217 72.7391 67.6564 74.4348L50.4471 91.3913ZM44.5846 106.841C41.1806 106.841 38.3439 104.014 38.3439 100.623C38.3439 97.2319 41.1806 94.4058 44.5846 94.4058C47.9887 94.4058 50.8254 97.2319 50.8254 100.623C50.8254 104.014 47.9887 106.841 44.5846 106.841ZM142.356 45.4203C145.76 45.4203 148.597 48.2464 148.597 51.6377C148.597 55.029 145.76 57.8551 142.356 57.8551C138.952 57.8551 136.115 55.029 136.115 51.6377C136.115 48.2464 138.952 45.4203 142.356 45.4203ZM108.694 92.5217C112.098 92.5217 114.935 95.3478 114.935 98.7391C114.935 102.13 112.098 104.957 108.694 104.957C105.29 104.957 102.453 102.13 102.453 98.7391C102.453 95.3478 105.29 92.5217 108.694 92.5217ZM76.9229 62.5652C80.3269 62.5652 83.1636 65.3913 83.1636 68.7826C83.1636 72.1739 80.3269 75 76.9229 75C73.5189 75 70.6822 72.1739 70.6822 68.7826C70.6822 65.3913 73.5189 62.5652 76.9229 62.5652Z" fill="#3D78F3"/>
<path d="M51.0145 29.2174H37.7766V33.9275H51.0145V29.2174Z" fill="#3D78F3"/>
<path d="M63.1177 39.3913H37.9657V44.1015H63.1177V39.3913Z" fill="#3D78F3"/>
<path d="M146.516 135.478H24.7278V14.7101H37.7766V10H22.2694C21.1347 10 20 11.1304 20 12.2609V137.739C20 139.058 21.1347 140 22.2694 140H148.786C150.109 140 151.055 138.87 151.055 137.739V123.797H146.327V135.478H146.516Z" fill="#3D78F3"/>
</g>
<defs>
<filter id="filter0_d" x="0" y="0" width="173.514" height="170" filterUnits="userSpaceOnUse" color-interpolation-filters="sRGB">
<feFlood flood-opacity="0" result="BackgroundImageFix"/>
<feColorMatrix in="SourceAlpha" type="matrix" values="0 0 0 0 0 0 0 0 0 0 0 0 0 0 0 0 0 0 127 0"/>
<feOffset dy="10"/>
<feGaussianBlur stdDeviation="10"/>
<feColorMatrix type="matrix" values="0 0 0 0 0.431667 0 0 0 0 0.0833333 0 0 0 0 1 0 0 0 0.1 0"/>
<feBlend mode="normal" in2="BackgroundImageFix" result="effect1_dropShadow"/>
<feBlend mode="normal" in="SourceGraphic" in2="effect1_dropShadow" result="shape"/>
</filter>
</defs>
</svg>
