<svg width="112" height="112" viewBox="0 0 112 112" fill="none" xmlns="http://www.w3.org/2000/svg">
<path d="M95.424 112H16.576C7.392 112 0 104.16 0 94.528V51.072C0 45.248 2.688 39.872 7.168 36.512C8.064 35.84 9.632 36.064 10.304 36.96C11.2 38.08 10.976 39.424 9.856 40.096C6.496 42.56 4.48 46.592 4.48 51.072V94.528C4.48 101.696 9.856 107.52 16.576 107.52H95.424C102.144 107.52 107.52 101.696 107.52 94.528V51.072C107.52 47.04 105.728 43.232 102.592 40.768C101.696 40.096 101.472 38.528 102.368 37.632C103.264 36.736 104.608 36.512 105.504 37.408C109.536 40.768 112 45.92 112 51.296V94.752C112 104.16 104.608 112 95.424 112Z" fill="#803C8A"/>
<path d="M105.28 42.336C104.832 42.336 104.16 42.112 103.712 41.888L84.896 25.536C84 24.64 83.776 23.296 84.672 22.4C85.568 21.504 86.912 21.28 87.808 22.176L106.624 38.528C107.52 39.424 107.744 40.768 106.848 41.664C106.4 42.112 105.952 42.336 105.28 42.336Z" fill="#803C8A"/>
<path d="M6.72 42.336C6.048 42.336 5.376 42.112 4.928 41.664C4.032 40.768 4.256 39.424 5.152 38.528L23.072 23.072C23.968 22.176 25.312 22.4 26.208 23.296C27.104 24.192 26.88 25.536 25.984 26.432L8.064 41.888C7.84 42.112 7.392 42.336 6.72 42.336Z" fill="#803C8A"/>
<path d="M6.72 107.072C6.272 107.072 5.6 106.848 5.152 106.4C4.256 105.504 4.256 104.16 4.928 103.264L33.6 71.904C34.048 71.456 34.72 71.232 35.168 71.232H76.384C77.056 71.232 77.504 71.456 77.952 71.904L106.624 103.264C107.52 104.16 107.296 105.504 106.4 106.4C105.504 107.296 104.16 107.072 103.264 106.176L75.712 75.712H36.288L8.288 106.4C7.84 106.848 7.168 107.072 6.72 107.072Z" fill="#803C8A"/>
<path d="M76.608 75.712H35.392C34.72 75.712 34.272 75.488 33.824 75.04L5.152 43.68C4.256 42.784 4.48 41.44 5.376 40.544C6.272 39.648 7.616 39.872 8.512 40.768L36.512 71.456H75.712L103.712 40.768C104.608 39.872 105.952 39.872 106.848 40.544C107.744 41.44 107.744 42.784 107.072 43.68L78.4 75.04C77.728 75.488 77.28 75.712 76.608 75.712Z" fill="#803C8A"/>
<path d="M85.344 64.736C84 64.736 83.104 63.84 83.104 62.496V4.48H28.224V62.496C28.224 63.84 27.328 64.736 25.984 64.736C24.64 64.736 23.744 63.84 23.744 62.496V2.24C23.744 0.896 24.64 0 25.984 0H85.568C86.912 0 87.808 0.896 87.808 2.24V62.496C87.584 63.84 86.688 64.736 85.344 64.736Z" fill="#803C8A"/>
<path d="M48.16 75.712C46.816 75.712 45.92 74.816 45.92 73.472V57.792C45.92 56.448 46.816 55.552 48.16 55.552C49.504 55.552 50.4 56.448 50.4 57.792V73.472C50.4 74.816 49.28 75.712 48.16 75.712Z" fill="#803C8A"/>
<path d="M48.16 59.136C43.456 59.136 39.648 55.328 39.648 50.624C39.648 45.92 43.456 42.112 48.16 42.112C52.864 42.112 56.672 45.92 56.672 50.624C56.672 55.328 52.864 59.136 48.16 59.136ZM48.16 46.592C45.92 46.592 44.128 48.384 44.128 50.624C44.128 52.864 45.92 54.656 48.16 54.656C50.4 54.656 52.192 52.864 52.192 50.624C52.192 48.384 50.4 46.592 48.16 46.592Z" fill="#803C8A"/>
<path d="M67.872 52.864H54.208C52.864 52.864 51.968 51.968 51.968 50.624C51.968 49.28 52.864 48.384 54.208 48.384H65.632V19.264C65.632 17.92 66.528 17.024 67.872 17.024C69.216 17.024 70.112 17.92 70.112 19.264V50.624C70.112 51.968 69.216 52.864 67.872 52.864Z" fill="#803C8A"/>
<path d="M73.92 24.416C73.248 24.416 72.8 24.192 72.352 23.744L67.872 19.264L63.392 23.744C62.496 24.64 61.152 24.64 60.256 23.744C59.36 22.848 59.36 21.504 60.256 20.608L66.304 14.56C67.2 13.664 68.544 13.664 69.44 14.56L75.488 20.608C76.384 21.504 76.384 22.848 75.488 23.744C75.04 24.192 74.592 24.416 73.92 24.416Z" fill="#803C8A"/>
</svg>
