<svg width="104" height="104" viewBox="0 0 104 104" fill="none" xmlns="http://www.w3.org/2000/svg">
<g filter="url(#filter0_d)">
<circle cx="46" cy="46" r="38" fill="white"/>
</g>
<path d="M35.9354 54.6194H35.3924C36.1823 53.8321 36.6759 52.7004 36.6759 51.4211C36.6759 48.9609 34.8494 46.9928 32.5785 46.9928C30.3076 46.9928 28.481 48.9609 28.481 51.4211C28.481 52.7004 28.9747 53.8321 29.7646 54.6194H29.1722C28.3823 54.6194 27.7899 55.3575 27.7899 56.3415V61.4096C27.7899 61.754 28.0861 62 28.3823 62H36.6266C36.9722 62 37.219 61.7048 37.219 61.4096V56.3415C37.3177 55.4067 36.7253 54.6194 35.9354 54.6194ZM29.7152 51.4211C29.7152 49.6498 30.9987 48.2229 32.5785 48.2229C34.1582 48.2229 35.3924 49.6498 35.3924 51.4211C35.3924 53.1925 34.1089 54.6194 32.5291 54.6194C30.9494 54.6194 29.7152 53.1925 29.7152 51.4211ZM36.0835 60.8191H29.0734V56.3907C29.0734 56.0955 29.1722 55.8987 29.2215 55.8987H35.9354C35.9848 55.9479 36.0835 56.0955 36.0835 56.3907V60.8191Z" fill="#FBAD77"/>
<path d="M59.5823 44.9262C60.9646 44.9262 62.0506 43.8437 62.0506 42.466V30.4602C62.0506 29.0825 60.9646 28 59.5823 28H29.4684C28.0861 28 27 29.0825 27 30.4602V42.466C27 43.8437 28.0861 44.9262 29.4684 44.9262H40.4278V51.4211C40.4278 51.6671 40.5759 51.9132 40.8228 52.0116C40.8722 52.0608 40.9709 52.0608 41.0203 52.0608C41.2177 52.0608 41.3658 51.9624 41.5139 51.864L47.3886 44.9754H59.5823V44.9262ZM46.6481 43.9421L41.662 49.7482V44.3357C41.662 43.9913 41.3658 43.7453 41.0696 43.7453H29.4684C28.7772 43.7453 28.2342 43.2041 28.2342 42.5152V30.4602C28.2342 29.7713 28.7772 29.2301 29.4684 29.2301H59.5823C60.2734 29.2301 60.8165 29.7713 60.8165 30.4602V42.466C60.8165 43.1548 60.2734 43.6961 59.5823 43.6961H47.1418C46.9443 43.6961 46.7962 43.7945 46.6481 43.9421Z" fill="#FBAD77"/>
<path d="M64.2228 51.7164H57.6076V48.1737C57.6076 47.9276 57.4595 47.6816 57.2127 47.5832C56.9658 47.4848 56.719 47.534 56.5215 47.7308L52.9177 51.6671H45.4633C44.476 51.6671 43.6861 52.4052 43.6861 53.3401V60.2779C43.6861 61.2127 44.476 61.9508 45.4633 61.9508H64.2228C65.2101 61.9508 66 61.2127 66 60.2779V53.3893C66 52.4544 65.2101 51.7164 64.2228 51.7164ZM64.7658 60.3271C64.7658 60.5731 64.519 60.7699 64.2228 60.7699H45.4633C45.1671 60.7699 44.9203 60.5731 44.9203 60.3271V53.3893C44.9203 53.1433 45.1671 52.9465 45.4633 52.9465H53.2139C53.4114 52.9465 53.5595 52.8973 53.6582 52.7496L56.3734 49.7974V52.356C56.3734 52.7004 56.6696 52.9465 56.9658 52.9465H64.1734C64.4696 52.9465 64.7165 53.1433 64.7165 53.3893V60.3271H64.7658Z" fill="#FBAD77"/>
<path d="M36.7253 32.4776H31.3443V33.7077H36.7253V32.4776Z" fill="#FBAD77"/>
<path d="M47.1911 35.9219H31.3443V37.152H47.1911V35.9219Z" fill="#FBAD77"/>
<path d="M56.9658 39.4153H31.3443V40.6454H56.9658V39.4153Z" fill="#FBAD77"/>
<path d="M62.1 58.7033H47.7342V59.9334H62.1V58.7033Z" fill="#FBAD77"/>
<path d="M56.6696 56.3415H47.7342V57.5716H56.6696V56.3415Z" fill="#FBAD77"/>
<path d="M53.362 54.1274H47.7342V55.3575H53.362V54.1274Z" fill="#FBAD77"/>
<defs>
<filter id="filter0_d" x="0" y="0" width="104" height="104" filterUnits="userSpaceOnUse" color-interpolation-filters="sRGB">
<feFlood flood-opacity="0" result="BackgroundImageFix"/>
<feColorMatrix in="SourceAlpha" type="matrix" values="0 0 0 0 0 0 0 0 0 0 0 0 0 0 0 0 0 0 127 0"/>
<feOffset dx="6" dy="6"/>
<feGaussianBlur stdDeviation="7"/>
<feColorMatrix type="matrix" values="0 0 0 0 0.7875 0 0 0 0 0.535962 0 0 0 0 0.357656 0 0 0 0.33 0"/>
<feBlend mode="normal" in2="BackgroundImageFix" result="effect1_dropShadow"/>
<feBlend mode="normal" in="SourceGraphic" in2="effect1_dropShadow" result="shape"/>
</filter>
</defs>
</svg>
