<svg width="104" height="104" viewBox="0 0 104 104" fill="none" xmlns="http://www.w3.org/2000/svg">
<g filter="url(#filter0_d)">
<circle cx="46" cy="46" r="38" fill="white"/>
</g>
<path d="M33.6737 58.2159H30.9773V59.6071H33.6737V58.2159Z" fill="#1DB4F6"/>
<path d="M55.9191 58.2159H36.0331V59.6071H55.9191V58.2159Z" fill="#1DB4F6"/>
<path d="M46.8187 45.7504L40.8079 42.801C40.5832 42.6897 40.3585 42.6897 40.1338 42.8567C39.9091 42.968 39.7968 43.1906 39.7968 43.4688V49.4233C39.7968 49.6459 39.9091 49.8685 40.1338 50.0354C40.2462 50.0911 40.3585 50.1467 40.5271 50.1467C40.6394 50.1467 40.7518 50.1467 40.8641 50.0911L46.8749 47.1417C47.0996 47.0304 47.2681 46.8078 47.2681 46.5295C47.2681 46.2513 47.0996 45.9174 46.8187 45.7504ZM41.2573 48.2546V44.5818L44.9649 46.4182L41.2573 48.2546Z" fill="#1DB4F6"/>
<path d="M66.5362 29H50.1892C49.3466 29 48.6725 29.6678 48.6725 30.5025V34.5649H28.6741C28.2809 34.5649 28 34.8988 28 35.2327V61.3322C28 61.7218 28.3371 62 28.6741 62H58.3346C58.7278 62 59.0087 61.6661 59.0087 61.3322V46.5852L61.8736 41.688H66.48C67.3226 41.688 67.9967 41.0202 67.9967 40.1855V30.5025C68.0529 29.6678 67.3788 29 66.5362 29ZM29.4044 36.0118H48.6725V40.1298C48.6725 40.9646 49.3466 41.6324 50.1892 41.6324H57.6605V55.7673H29.4044V36.0118ZM57.6605 60.7201H29.4044V57.2142H57.6605V60.7201ZM66.6485 40.1298C66.6485 40.1855 66.5923 40.2411 66.5362 40.2411H61.4804C61.2557 40.2411 60.9748 40.3524 60.8625 40.575L59.0649 43.7471V40.9089C59.0649 40.5194 58.7278 40.2411 58.3908 40.2411H50.1892C50.133 40.2411 50.0768 40.1855 50.0768 40.1298V30.5025C50.0768 30.4469 50.133 30.3912 50.1892 30.3912H66.5362C66.5923 30.3912 66.6485 30.4469 66.6485 30.5025V40.1298Z" fill="#1DB4F6"/>
<path d="M56.5932 31.7825H52.38V33.1737H56.5932V31.7825Z" fill="#1DB4F6"/>
<path d="M62.323 34.6206H52.38V36.0118H62.323V34.6206Z" fill="#1DB4F6"/>
<path d="M65.0194 37.3474H52.38V38.7386H65.0194V37.3474Z" fill="#1DB4F6"/>
<defs>
<filter id="filter0_d" x="0" y="0" width="104" height="104" filterUnits="userSpaceOnUse" color-interpolation-filters="sRGB">
<feFlood flood-opacity="0" result="BackgroundImageFix"/>
<feColorMatrix in="SourceAlpha" type="matrix" values="0 0 0 0 0 0 0 0 0 0 0 0 0 0 0 0 0 0 127 0"/>
<feOffset dx="6" dy="6"/>
<feGaussianBlur stdDeviation="7"/>
<feColorMatrix type="matrix" values="0 0 0 0 0.0785417 0 0 0 0 0.475388 0 0 0 0 0.65 0 0 0 0.33 0"/>
<feBlend mode="normal" in2="BackgroundImageFix" result="effect1_dropShadow"/>
<feBlend mode="normal" in="SourceGraphic" in2="effect1_dropShadow" result="shape"/>
</filter>
</defs>
</svg>
