<svg width="104" height="104" viewBox="0 0 104 104" fill="none" xmlns="http://www.w3.org/2000/svg">
<g filter="url(#filter0_d)">
<circle cx="46" cy="46" r="38" fill="white"/>
</g>
<path d="M65 54.2697V52.4025C65 51.595 64.3418 50.8885 63.481 50.8885H63.076C63.076 50.7876 63.076 50.7371 63.076 50.6362V48.769C63.076 47.9616 62.4177 47.2551 61.557 47.2551H58.0127V31.6111C58.0127 31.2579 57.7089 31.0055 57.4051 31.0055H33.6076C33.3038 30.9551 33 31.2579 33 31.5607V62.3944C33 62.7477 33.3038 63 33.6076 63H63.4304C64.2405 63 64.9494 62.344 64.9494 61.4861V59.6189C64.9494 58.8115 64.2911 58.1049 63.4304 58.1049H62.2658C62.2658 58.004 62.2658 57.9536 62.2658 57.8526V55.9854C62.2658 55.8845 62.2658 55.834 62.2658 55.7331H63.4304C64.2911 55.7836 65 55.1275 65 54.2697ZM63.7342 52.4025V54.2697C63.7342 54.421 63.6329 54.522 63.481 54.522H54.0127C53.8608 54.522 53.7595 54.421 53.7595 54.2697V52.4025C53.7595 52.2511 53.8608 52.1501 54.0127 52.1501H63.481C63.6329 52.1501 63.7342 52.2511 63.7342 52.4025ZM61.8101 48.769V50.6362C61.8101 50.7876 61.7089 50.8885 61.557 50.8885H52.0886C51.9367 50.8885 51.8354 50.7876 51.8354 50.6362V48.769C51.8354 48.6176 51.9367 48.5167 52.0886 48.5167H61.557C61.7089 48.5167 61.8101 48.6176 61.8101 48.769ZM34.2658 61.7889V32.2167H56.7975V47.2551H52.0886C51.2785 47.2551 50.5696 47.9111 50.5696 48.769V50.6362C50.5696 51.4436 51.2278 52.1501 52.0886 52.1501H52.4937C52.4937 52.2511 52.4937 52.3015 52.4937 52.4025V54.2697C52.4937 54.3706 52.4937 54.421 52.4937 54.522H51.3797C50.5696 54.522 49.8608 55.178 49.8608 56.0359V57.9031C49.8608 58.7105 50.519 59.417 51.3797 59.417H52.4937C52.4937 59.518 52.4937 59.5684 52.4937 59.6693V61.5365C52.4937 61.6375 52.4937 61.6879 52.4937 61.7889H34.2658ZM63.7342 59.6693V61.5365C63.7342 61.6879 63.6329 61.7889 63.481 61.7889H54.0127C53.8608 61.7889 53.7595 61.6879 53.7595 61.5365V59.6693C53.7595 59.518 53.8608 59.417 54.0127 59.417H63.481C63.6329 59.417 63.7342 59.518 63.7342 59.6693ZM61.1013 56.0359V57.9031C61.1013 58.0545 61 58.1554 60.8481 58.1554H51.3797C51.2278 58.1554 51.1266 58.0545 51.1266 57.9031V56.0359C51.1266 55.8845 51.2278 55.7836 51.3797 55.7836H60.8481C61 55.7836 61.1013 55.8845 61.1013 56.0359Z" fill="#FB838B"/>
<path d="M43.0253 39.1303L46.3165 42.4105C46.4177 42.5114 46.6203 42.6124 46.7722 42.6124C46.9241 42.6124 47.0759 42.5619 47.2278 42.4105L52.7468 36.9099V38.1715H54.0127V35.3959C54.0127 35.0427 53.7089 34.7904 53.4051 34.7904H50.8734V36.052H51.8861L46.7722 41.0984L43.481 37.8182C43.2278 37.5659 42.8228 37.5659 42.5696 37.8182L37.3038 43.0665L38.2152 43.9749L43.0253 39.1303Z" fill="#FB838B"/>
<path d="M47.481 48.0625H38.1646V49.3241H47.481V48.0625Z" fill="#FB838B"/>
<path d="M47.481 51.7464H36.4937V53.008H47.481V51.7464Z" fill="#FB838B"/>
<path d="M47.481 54.8752H36.4937V56.1368H47.481V54.8752Z" fill="#FB838B"/>
<path d="M47.481 58.5591H36.4937V59.8207H47.481V58.5591Z" fill="#FB838B"/>
<defs>
<filter id="filter0_d" x="0" y="0" width="104" height="104" filterUnits="userSpaceOnUse" color-interpolation-filters="sRGB">
<feFlood flood-opacity="0" result="BackgroundImageFix"/>
<feColorMatrix in="SourceAlpha" type="matrix" values="0 0 0 0 0 0 0 0 0 0 0 0 0 0 0 0 0 0 127 0"/>
<feOffset dx="6" dy="6"/>
<feGaussianBlur stdDeviation="7"/>
<feColorMatrix type="matrix" values="0 0 0 0 0.841667 0 0 0 0 0.356209 0 0 0 0 0.29809 0 0 0 0.33 0"/>
<feBlend mode="normal" in2="BackgroundImageFix" result="effect1_dropShadow"/>
<feBlend mode="normal" in="SourceGraphic" in2="effect1_dropShadow" result="shape"/>
</filter>
</defs>
</svg>
