<svg width="104" height="104" viewBox="0 0 104 104" fill="none" xmlns="http://www.w3.org/2000/svg">
<g filter="url(#filter0_d)">
<circle cx="46" cy="46" r="38" fill="white"/>
</g>
<path d="M34.7038 33.9685C34.7038 30.9234 37.1442 28.464 40.1658 28.464H51.8452C54.8667 28.464 57.3072 30.9234 57.3072 33.9685V35.0811H58.7598V33.9685C58.8179 30.1622 55.6802 27 51.8452 27H40.1658C36.3307 27 33.2511 30.1622 33.2511 33.9685V38.7703H34.7038V33.9685Z" fill="#FA6C5A"/>
<path d="M58.8179 42.8694V41.5225H57.3653V43.045C57.3653 43.1622 57.3653 43.2793 57.4234 43.3964L59.7476 48.1982H58.0625C57.6558 48.1982 57.3653 48.5496 57.3653 48.9009V51.009C57.3653 54.0541 54.9248 56.5135 51.9033 56.5135H47.6034C47.1966 56.5135 46.9061 56.8649 46.9061 57.2162V64.5946H34.7038V46.2072H33.2511V65.2973C33.2511 65.7072 33.5997 66 33.9484 66H47.5453C47.952 66 48.2426 65.6487 48.2426 65.2973V57.9775H51.7871C55.6221 57.9775 58.7017 54.8153 58.7017 51.009V49.6622H60.8517C61.0841 49.6622 61.3165 49.545 61.4908 49.3108C61.607 49.0766 61.6651 48.8423 61.5489 48.6081L58.8179 42.8694Z" fill="#FA6C5A"/>
<path d="M64.861 33.2658C64.7448 33.0901 64.5705 32.973 64.3961 32.973L60.2125 32.4459L60.0382 33.9099L62.3624 34.2027L54.8667 39.5315L50.683 37.7162C50.3925 37.5991 50.0439 37.6577 49.8114 37.9505L45.4535 43.455L38.8874 38.6532C38.655 38.4775 38.3064 38.4775 38.0739 38.5946L30.3458 43.3378C29.7647 42.8694 29.0674 42.5766 28.254 42.5766C26.4527 42.5766 25 44.0405 25 45.8559C25 47.6712 26.4527 49.1351 28.254 49.1351C30.0553 49.1351 31.5079 47.6712 31.5079 45.8559C31.5079 45.3874 31.3917 44.9189 31.2174 44.5676L38.4226 40.1171L45.1629 45.036C45.2791 45.1532 45.4535 45.1532 45.5697 45.1532C45.8021 45.1532 45.9764 45.036 46.1507 44.8604L50.6249 39.2387L54.6343 40.9955C54.8667 41.1126 55.1572 41.0541 55.3315 40.9369L63.2921 35.3153L62.8273 37.9505L64.2799 38.1847L64.9772 33.8514C65.0353 33.6171 64.9772 33.4414 64.861 33.2658ZM28.3121 47.6126C27.3243 47.6126 26.5108 46.7928 26.5108 45.7973C26.5108 44.8018 27.3243 43.982 28.3121 43.982C29.2999 43.982 30.1134 44.8018 30.1134 45.7973C30.0553 46.7928 29.2418 47.6126 28.3121 47.6126Z" fill="#FA6C5A"/>
<defs>
<filter id="filter0_d" x="0" y="0" width="104" height="104" filterUnits="userSpaceOnUse" color-interpolation-filters="sRGB">
<feFlood flood-opacity="0" result="BackgroundImageFix"/>
<feColorMatrix in="SourceAlpha" type="matrix" values="0 0 0 0 0 0 0 0 0 0 0 0 0 0 0 0 0 0 127 0"/>
<feOffset dx="6" dy="6"/>
<feGaussianBlur stdDeviation="7"/>
<feColorMatrix type="matrix" values="0 0 0 0 0.841667 0 0 0 0 0.356209 0 0 0 0 0.29809 0 0 0 0.33 0"/>
<feBlend mode="normal" in2="BackgroundImageFix" result="effect1_dropShadow"/>
<feBlend mode="normal" in="SourceGraphic" in2="effect1_dropShadow" result="shape"/>
</filter>
</defs>
</svg>
