<svg width="104" height="104" viewBox="0 0 104 104" fill="none" xmlns="http://www.w3.org/2000/svg">
<g filter="url(#filter0_d)">
<circle cx="46" cy="46" r="38" fill="white"/>
</g>
<path d="M33.3845 35.283H30.0859V36.6509H33.3845V35.283Z" fill="#52D1CD"/>
<path d="M38.5453 35.283H35.2467V36.6509H38.5453V35.283Z" fill="#52D1CD"/>
<path d="M60.9444 35.283H57.6457V36.6509H60.9444V35.283Z" fill="#52D1CD"/>
<path d="M70.3616 38.3472H66.052V39.7151H68.4462L54.5067 51.1509L41.4184 47.9226C41.2056 47.8679 40.9927 47.9226 40.8331 48.0868L28.3301 58.9208V39.8792H62.9129V41.6302H64.243V32.6566C64.243 32.3283 63.9238 32 63.5514 32H27.6385C27.3192 32 27 32.3283 27 32.6566V60.3434C27 60.7264 27.3192 61 27.6385 61H63.5514C63.9238 61 64.1898 60.6717 64.1898 60.3434V47.5396H62.8597V59.6868H61.1572V47.4302L69.6699 40.4264V43.8189H71V39.0038C71 38.6755 70.734 38.3472 70.3616 38.3472ZM56.6348 51.2057V59.6868H54.8259V52.5736C54.9323 52.5736 54.9855 52.5189 55.0919 52.4642L56.6348 51.2057ZM32.4268 57.1698L34.3422 55.5283V59.6868H32.4268V57.1698ZM31.0967 59.6868H29.5006L31.0967 58.3189V59.6868ZM35.6191 54.3792L37.4281 52.8472V59.7415H35.6191V54.3792ZM38.7582 51.6981L40.6735 50.0566V59.7415H38.7582V51.6981ZM42.0036 49.4547L43.9722 49.9472V59.6868H42.0036V49.4547ZM45.3023 50.2755L47.1112 50.7132V59.6868H45.3023V50.2755ZM48.3882 51.0415L50.3035 51.534V59.6868H48.3882V51.0415ZM51.6336 51.8623L53.4958 52.3V59.6868H51.6336V51.8623ZM28.3301 33.3679H62.9129V38.5113H28.3301V33.3679ZM59.8271 59.6868H57.9117V50.1113L59.8271 48.5792V59.6868Z" fill="#52D1CD"/>
<defs>
<filter id="filter0_d" x="0" y="0" width="104" height="104" filterUnits="userSpaceOnUse" color-interpolation-filters="sRGB">
<feFlood flood-opacity="0" result="BackgroundImageFix"/>
<feColorMatrix in="SourceAlpha" type="matrix" values="0 0 0 0 0 0 0 0 0 0 0 0 0 0 0 0 0 0 127 0"/>
<feOffset dx="6" dy="6"/>
<feGaussianBlur stdDeviation="7"/>
<feColorMatrix type="matrix" values="0 0 0 0 0.244792 0 0 0 0 0.625 0 0 0 0 0.610148 0 0 0 0.33 0"/>
<feBlend mode="normal" in2="BackgroundImageFix" result="effect1_dropShadow"/>
<feBlend mode="normal" in="SourceGraphic" in2="effect1_dropShadow" result="shape"/>
</filter>
</defs>
</svg>
