<svg width="104" height="104" viewBox="0 0 104 104" fill="none" xmlns="http://www.w3.org/2000/svg">
<g filter="url(#filter0_d)">
<circle cx="46" cy="46" r="38" fill="white"/>
</g>
<path d="M59 34.6741C59 34.6193 59 34.5644 58.9471 34.5096V34.4548C58.8941 34.4 58.8941 34.2904 58.8412 34.2356L52.0647 27.2193C52.0118 27.1644 51.9588 27.1096 51.8529 27.1096H51.8C51.7471 27 51.6941 27 51.6412 27H32.6353C32.3176 27 32 27.3289 32 27.6578V63.3422C32 63.7259 32.3176 64 32.6353 64H58.3118C58.6824 64 58.9471 63.6711 58.9471 63.3422L59 34.6741ZM56.7765 34.0163H52.2765V29.357L56.7765 34.0163ZM33.3235 62.6844V28.3704H50.9529V34.6741C50.9529 35.0578 51.2706 35.3319 51.5882 35.3319H57.6765V62.6296H33.3235V62.6844Z" fill="#8264E6"/>
<path d="M42.0588 40.8133V37.5793C42.0588 36.8667 41.6882 36.3185 41.1588 36.2089C41.4765 35.7156 41.6882 35.1126 41.6882 34.4C41.6882 32.6459 40.4176 31.2756 38.8824 31.2756C37.3471 31.2756 36.0765 32.7007 36.0765 34.4C36.0765 35.0578 36.2882 35.6607 36.6059 36.2089C36.0765 36.3185 35.7059 36.8667 35.7059 37.5793V40.8133C35.7059 41.197 36.0235 41.4711 36.3412 41.4711H41.4235C41.7941 41.4711 42.0588 41.1422 42.0588 40.8133ZM38.8824 32.5911C39.6765 32.5911 40.3647 33.3585 40.3647 34.3452C40.3647 35.3319 39.6765 36.0993 38.8824 36.0993C38.0882 36.0993 37.4 35.3319 37.4 34.3452C37.4 33.3585 38.0353 32.5911 38.8824 32.5911ZM40.7353 40.1007H36.9765V37.5244C36.9765 37.5244 36.9765 37.5244 36.9765 37.4696H40.7353C40.7353 37.4696 40.7353 37.4696 40.7353 37.5244V40.1007Z" fill="#8264E6"/>
<path d="M53.4941 44.8696H39.7294V46.24H53.4941V44.8696Z" fill="#8264E6"/>
<path d="M53.4941 49.2548H36.7118V50.6252H53.4941V49.2548Z" fill="#8264E6"/>
<path d="M53.4941 53.7496H36.7118V55.12H53.4941V53.7496Z" fill="#8264E6"/>
<path d="M53.4941 58.1896H36.7118V59.56H53.4941V58.1896Z" fill="#8264E6"/>
<path d="M48.6765 40.3748H45.9765V41.7452H48.6765V40.3748Z" fill="#8264E6"/>
<path d="M53.4941 40.3748H50.7941V41.7452H53.4941V40.3748Z" fill="#8264E6"/>
<defs>
<filter id="filter0_d" x="0" y="0" width="104" height="104" filterUnits="userSpaceOnUse" color-interpolation-filters="sRGB">
<feFlood flood-opacity="0" result="BackgroundImageFix"/>
<feColorMatrix in="SourceAlpha" type="matrix" values="0 0 0 0 0 0 0 0 0 0 0 0 0 0 0 0 0 0 127 0"/>
<feOffset dx="6" dy="6"/>
<feGaussianBlur stdDeviation="7"/>
<feColorMatrix type="matrix" values="0 0 0 0 0.389733 0 0 0 0 0.296337 0 0 0 0 0.704167 0 0 0 0.33 0"/>
<feBlend mode="normal" in2="BackgroundImageFix" result="effect1_dropShadow"/>
<feBlend mode="normal" in="SourceGraphic" in2="effect1_dropShadow" result="shape"/>
</filter>
</defs>
</svg>
