<svg width="49" height="64" viewBox="0 0 49 64" fill="none" xmlns="http://www.w3.org/2000/svg">
<path d="M43.926 12.5579V13.8079C44.6164 13.8079 45.176 13.2483 45.176 12.5579H43.926ZM43.926 7.49356H45.176C45.176 6.80321 44.6164 6.24356 43.926 6.24356V7.49356ZM5.15939 7.49356V6.24356C4.46904 6.24356 3.90939 6.80321 3.90939 7.49356H5.15939ZM5.15939 12.5579H3.90939C3.90939 13.2483 4.46904 13.8079 5.15939 13.8079V12.5579ZM14.8937 7.40773H13.6437C13.6437 8.09808 14.2034 8.65773 14.8937 8.65773V7.40773ZM34.277 7.40773V8.65773C34.9674 8.65773 35.527 8.09808 35.527 7.40773H34.277ZM47 62V63.25C47.6904 63.25 48.25 62.6904 48.25 62H47ZM2 62H0.75C0.75 62.6904 1.30964 63.25 2 63.25L2 62ZM2 10.3262L2 9.07618C1.30964 9.07618 0.75 9.63583 0.75 10.3262H2ZM47 10.3262H48.25C48.25 9.63583 47.6904 9.07618 47 9.07618V10.3262ZM8.14801 17.574C7.45765 17.574 6.89801 18.1337 6.89801 18.824C6.89801 19.5144 7.45765 20.074 8.14801 20.074V17.574ZM16.0038 20.074C16.6942 20.074 17.2538 19.5144 17.2538 18.824C17.2538 18.1337 16.6942 17.574 16.0038 17.574V20.074ZM8.14801 22.9818C7.45765 22.9818 6.89801 23.5414 6.89801 24.2318C6.89801 24.9221 7.45765 25.4818 8.14801 25.4818V22.9818ZM29.7514 25.4818C30.4418 25.4818 31.0014 24.9221 31.0014 24.2318C31.0014 23.5414 30.4418 22.9818 29.7514 22.9818V25.4818ZM18.9924 30.6212C18.3021 30.6212 17.7424 31.1809 17.7424 31.8712C17.7424 32.5616 18.3021 33.1212 18.9924 33.1212V30.6212ZM31.63 33.1212C32.3203 33.1212 32.88 32.5616 32.88 31.8712C32.88 31.1809 32.3203 30.6212 31.63 30.6212V33.1212ZM18.9924 41.4367C18.3021 41.4367 17.7424 41.9963 17.7424 42.6867C17.7424 43.3771 18.3021 43.9367 18.9924 43.9367V41.4367ZM31.63 43.9367C32.3203 43.9367 32.88 43.3771 32.88 42.6867C32.88 41.9963 32.3203 41.4367 31.63 41.4367V43.9367ZM18.9924 52.7672C18.3021 52.7672 17.7424 53.3268 17.7424 54.0172C17.7424 54.7075 18.3021 55.2672 18.9924 55.2672V52.7672ZM31.63 55.2672C32.3203 55.2672 32.88 54.7075 32.88 54.0172C32.88 53.3268 32.3203 52.7672 31.63 52.7672V55.2672ZM7.12334 29.2103V27.9603C6.43298 27.9603 5.87334 28.5199 5.87334 29.2103H7.12334ZM12.8444 29.2103H14.0944C14.0944 28.5199 13.5348 27.9603 12.8444 27.9603V29.2103ZM12.8444 34.5322V35.7822C13.5348 35.7822 14.0944 35.2225 14.0944 34.5322H12.8444ZM7.12334 34.5322H5.87334C5.87334 35.2225 6.43298 35.7822 7.12334 35.7822V34.5322ZM7.12334 40.0258V38.7758C6.43298 38.7758 5.87334 39.3354 5.87334 40.0258H7.12334ZM12.8444 40.0258H14.0944C14.0944 39.3354 13.5348 38.7758 12.8444 38.7758V40.0258ZM12.8444 45.3476V46.5976C13.5348 46.5976 14.0944 46.038 14.0944 45.3476H12.8444ZM7.12334 45.3476H5.87334C5.87334 46.038 6.43298 46.5976 7.12334 46.5976V45.3476ZM7.12334 51.3562V50.1062C6.43298 50.1062 5.87334 50.6659 5.87334 51.3562H7.12334ZM12.8444 51.3562H14.0944C14.0944 50.6659 13.5348 50.1062 12.8444 50.1062V51.3562ZM12.8444 56.6781V57.9281C13.5348 57.9281 14.0944 57.3685 14.0944 56.6781H12.8444ZM7.12334 56.6781H5.87334C5.87334 57.3685 6.43298 57.9281 7.12334 57.9281V56.6781ZM45.176 12.5579V10.3262H42.676V12.5579H45.176ZM45.176 10.3262V7.49356H42.676V10.3262H45.176ZM3.90939 7.49356V10.3262H6.40939V7.49356H3.90939ZM3.90939 10.3262V12.5579H6.40939V10.3262H3.90939ZM5.15939 13.8079H43.926V11.3079H5.15939V13.8079ZM35.527 5.9485C35.527 4.6564 35.1697 3.42171 34.5372 2.4751C33.9137 1.54182 32.911 0.75 31.63 0.75V3.25C31.8006 3.25 32.1214 3.35947 32.4585 3.86396C32.7867 4.35512 33.027 5.09467 33.027 5.9485H35.527ZM31.63 0.75H17.5408V3.25H31.63V0.75ZM17.5408 0.75C16.2598 0.75 15.2571 1.54182 14.6336 2.4751C14.0011 3.4217 13.6437 4.6564 13.6437 5.9485H16.1437C16.1437 5.09467 16.3841 4.35512 16.7123 3.86396C17.0493 3.35947 17.3702 3.25 17.5408 3.25V0.75ZM13.6437 5.9485V7.40773H16.1437V5.9485H13.6437ZM14.8937 8.65773H34.277V6.15773H14.8937V8.65773ZM35.527 7.40773V5.9485H33.027V7.40773H35.527ZM47 60.75H2V63.25H47V60.75ZM3.25 62V10.3262H0.75V62H3.25ZM2 11.5762H5.15939L5.15939 9.07618L2 9.07618L2 11.5762ZM43.926 11.5762H47V9.07618L43.926 9.07618V11.5762ZM8.14801 20.074H16.0038V17.574H8.14801V20.074ZM8.14801 25.4818H29.7514V22.9818H8.14801V25.4818ZM18.9924 33.1212H31.63V30.6212H18.9924V33.1212ZM18.9924 43.9367H31.63V41.4367H18.9924V43.9367ZM18.9924 55.2672H31.63V52.7672H18.9924V55.2672ZM7.12334 30.4603H12.8444V27.9603H7.12334V30.4603ZM11.5944 29.2103V34.5322H14.0944V29.2103H11.5944ZM12.8444 33.2822H7.12334V35.7822H12.8444V33.2822ZM8.37334 34.5322V29.2103H5.87334V34.5322H8.37334ZM7.12334 41.2758H12.8444V38.7758H7.12334V41.2758ZM11.5944 40.0258V45.3476H14.0944V40.0258H11.5944ZM12.8444 44.0976H7.12334V46.5976H12.8444V44.0976ZM8.37334 45.3476V40.0258H5.87334V45.3476H8.37334ZM7.12334 52.6062H12.8444V50.1062H7.12334V52.6062ZM11.5944 51.3562V56.6781H14.0944V51.3562H11.5944ZM12.8444 55.4281H7.12334V57.9281H12.8444V55.4281ZM8.37334 56.6781V51.3562H5.87334V56.6781H8.37334ZM43.926 6.24356H5.15939V8.74356H43.926V6.24356ZM45.75 10.3262V62H48.25V10.3262H45.75Z" fill="url(#paint0_linear)"/>
<defs>
<linearGradient id="paint0_linear" x1="38.7627" y1="1.99994" x2="-88.9334" y2="12.1138" gradientUnits="userSpaceOnUse">
<stop stop-color="#803C8A"/>
<stop offset="1" stop-color="#FFCDCE"/>
</linearGradient>
</defs>
</svg>
