<svg width="13" height="13" viewBox="0 0 13 13" fill="none" xmlns="http://www.w3.org/2000/svg">
<path d="M6.03571 6.5C7.94074 6.5 9.48469 5.04512 9.48469 3.25C9.48469 1.45488 7.94074 0 6.03571 0C4.13069 0 2.58673 1.45488 2.58673 3.25C2.58673 5.04512 4.13069 6.5 6.03571 6.5ZM8.45 7.3125H8.00002C7.40183 7.57148 6.73629 7.71875 6.03571 7.71875C5.33514 7.71875 4.67229 7.57148 4.07141 7.3125H3.62143C1.6221 7.3125 0 8.84102 0 10.725V11.7812C0 12.4541 0.579321 13 1.29337 13H10.7781C11.4921 13 12.0714 12.4541 12.0714 11.7812V10.725C12.0714 8.84102 10.4493 7.3125 8.45 7.3125Z" fill="#7A637D"/>
</svg>
